<?xml version="1.0" encoding="UTF-8" standalone="no"?>
<!-- Created with Inkscape (http://www.inkscape.org/) -->

<svg
   xmlns:dc="http://purl.org/dc/elements/1.1/"
   xmlns:cc="http://creativecommons.org/ns#"
   xmlns:rdf="http://www.w3.org/1999/02/22-rdf-syntax-ns#"
   xmlns:svg="http://www.w3.org/2000/svg"
   xmlns="http://www.w3.org/2000/svg"
   xmlns:sodipodi="http://sodipodi.sourceforge.net/DTD/sodipodi-0.dtd"
   xmlns:inkscape="http://www.inkscape.org/namespaces/inkscape"
   width="210mm"
   height="297mm"
   viewBox="0 0 210 297"
   version="1.1"
   id="svg8"
   inkscape:version="0.92.4 (5da689c313, 2019-01-14)"
   sodipodi:docname="LOGO.svg">
  <defs
     id="defs2" />
  <sodipodi:namedview
     id="base"
     pagecolor="#ffffff"
     bordercolor="#666666"
     borderopacity="1.0"
     inkscape:pageopacity="0.0"
     inkscape:pageshadow="2"
     inkscape:zoom="0.70910507"
     inkscape:cx="400"
     inkscape:cy="560"
     inkscape:document-units="mm"
     inkscape:current-layer="layer1"
     showgrid="false"
     inkscape:window-width="1600"
     inkscape:window-height="795"
     inkscape:window-x="-8"
     inkscape:window-y="34"
     inkscape:window-maximized="1" />
  <metadata
     id="metadata5">
    <rdf:RDF>
      <cc:Work
         rdf:about="">
        <dc:format>image/svg+xml</dc:format>
        <dc:type
           rdf:resource="http://purl.org/dc/dcmitype/StillImage" />
        <dc:title></dc:title>
      </cc:Work>
    </rdf:RDF>
  </metadata>
  <g
     inkscape:label="Ebene 1"
     inkscape:groupmode="layer"
     id="layer1">
    <ellipse
       style="fill:#ffffff;stroke-width:0.26458332"
       id="path10"
       cx="120.19643"
       cy="119.72916"
       rx="52.160713"
       ry="85.04464" />
    <ellipse
       style="fill:#ffffff;stroke-width:0.26458332"
       id="path12"
       cx="90.336304"
       cy="169.62202"
       rx="74.461304"
       ry="63.877975" />
    <ellipse
       style="fill:#ffffff;stroke-width:0.26458332"
       id="path14"
       cx="101.67559"
       cy="109.5238"
       rx="59.342262"
       ry="70.303574" />
    <ellipse
       style="fill:#ffffff;stroke-width:0.26458332"
       id="path54"
       cx="110.63093"
       cy="144.95242"
       rx="102.42223"
       ry="72.199272" />
    <ellipse
       style="fill:#ffffff;stroke-width:0.26458332"
       id="path56"
       cx="85.258575"
       cy="145.13898"
       rx="61.751839"
       ry="51.490959" />
    <ellipse
       style="fill:#00ffff;stroke-width:0.39177203"
       id="path60"
       cx="99.623802"
       cy="145.88524"
       rx="78.728928"
       ry="76.863312" />
    <path
       style="fill:#00ff00;stroke:#000000;stroke-width:0.26458332px;stroke-linecap:butt;stroke-linejoin:miter;stroke-opacity:1"
       d="m 69.027732,163.42201 c -0.497496,0.24874 -1.047514,0.41251 -1.49249,0.74624 -0.0995,0.0746 0.08795,0.28518 0,0.37312 -1.145263,1.14527 -0.310243,-0.218 -1.492491,0.37313 -0.111244,0.0556 0.08795,0.28517 0,0.37312 -0.175893,0.17589 -0.570355,-0.17589 -0.746247,0 -0.08795,0.0879 0.08795,0.28518 0,0.37312 -0.08795,0.088 -0.261879,-0.0556 -0.373123,0 -0.157321,0.0787 -0.2158,0.29446 -0.373121,0.37312 -0.111244,0.0556 -0.285178,-0.0879 -0.373123,0 -0.08795,0.088 0.08795,0.28518 0,0.37313 -0.994995,0 0.124372,-0.12438 -0.373124,0.37312 -0.08794,0.0879 -0.285178,-0.0879 -0.373123,0 -0.08794,0.0879 0.08795,0.28518 0,0.37312 -0.772004,0.77201 0.03018,-1.17972 -0.746247,0.37313 -0.05562,0.11124 0.08795,0.28517 0,0.37312 -0.08794,0.0879 -0.285176,-0.088 -0.37312,0 -0.08979,0.0898 0.08978,1.4027 0,1.49249 -0.08795,0.088 -0.285179,-0.0879 -0.373124,0 -0.08795,0.088 0,0.24875 0,0.37312 0,0.12438 0,0.24875 0,0.37312 0,1.86562 0,3.73124 0,5.59685 0,0.74624 0,1.49249 0,2.23874 0,0.12437 0,0.24875 0,0.37312 0,0.12437 -0.05562,0.26188 0,0.37312 0.07866,0.15733 0.29446,0.2158 0.373124,0.37312 0.101205,0.20242 -0.102095,1.3904 0,1.4925 0.08794,0.0879 0.285175,-0.0879 0.37312,0 0.175893,0.17589 -0.175889,0.57035 0,0.74624 0.08795,0.088 0.285179,-0.0879 0.373124,0 0.175892,0.17589 -0.111244,0.52376 0,0.74625 0.07866,0.15732 0.294462,0.2158 0.373123,0.37312 0.05562,0.11124 -0.05562,0.26188 0,0.37312 0.07866,0.15733 0.294463,0.2158 0.373123,0.37313 0.05562,0.11124 -0.08794,0.28517 0,0.37312 0.08795,0.0879 0.26188,-0.0556 0.373124,0 1.552847,0.77642 -0.398883,-0.0258 0.373123,0.74625 0.08795,0.0879 0.261877,-0.0556 0.373121,0 0.157324,0.0787 0.215802,0.29446 0.373123,0.37312 0.111244,0.0556 0.285179,-0.088 0.373123,0 0.08794,0.0879 -0.08794,0.28518 0,0.37312 0.08794,0.088 0.26188,-0.0556 0.373124,0 0.157321,0.0787 0.215799,0.29446 0.373123,0.37312 0.111244,0.0556 0.285176,-0.0879 0.373121,0 0.08795,0.088 -0.08795,0.28518 0,0.37313 0.08795,0.0879 0.261879,-0.0556 0.373123,0 0.157324,0.0787 0.215802,0.29446 0.373124,0.37312 0.147941,0.074 1.043088,-0.0763 1.11937,0 0.08794,0.088 -0.08795,0.28518 0,0.37312 0.102094,0.1021 1.290076,-0.1012 1.49249,0 0.157322,0.0787 0.2158,0.29446 0.373124,0.37312 0.111244,0.0556 0.285176,-0.0879 0.373123,0 0.08795,0.088 -0.111244,0.31751 0,0.37313 0.136245,0.0681 1.792989,-0.0726 1.865614,0 0.08795,0.0879 -0.08795,0.28518 0,0.37312 0.17589,0.17589 0.570355,-0.17589 0.746244,0 0.08795,0.0879 -0.08795,0.28518 0,0.37312 0.175893,0.1759 0.570355,-0.17589 0.746247,0 0.175892,0.1759 -0.175892,0.57036 0,0.74625 0.08795,0.0879 0.285176,-0.088 0.373123,0 0.175893,0.17589 -0.175892,0.57035 0,0.74625 0.08795,0.0879 0.285176,-0.0879 0.373124,0 0.01201,0.012 0,1.02887 0,1.11937 0,0.38439 0.05506,2.50173 0,2.61185 -0.07866,0.15733 -0.317503,0.20626 -0.373124,0.37313 -0.05689,0.17066 0.08302,1.32646 0,1.49249 -0.07866,0.15732 -0.317502,0.20626 -0.373123,0.37312 -0.07866,0.23599 0.111244,0.52376 0,0.74625 -0.05562,0.11124 -0.285176,-0.088 -0.373123,0 -0.08795,0.0879 0,0.24875 0,0.37312 0,0.12437 0,0.24875 0,0.37312 0,0.1688 0.04972,2.1393 0,2.23874 -0.549013,1.09803 -0.373124,-0.57919 -0.373124,1.11937 0,0.12437 0,0.24875 0,0.37312 0,0.12438 0.05562,0.26188 0,0.37313 -0.07866,0.15732 -0.3175,0.20625 -0.37312,0.37312 -0.06878,0.20634 0,1.86298 0,2.23873 0,1.4925 0,2.98499 0,4.47748 0,0.38439 -0.05507,2.50173 0,2.61186 0.07866,0.15732 0.3175,0.20626 0.37312,0.37312 0.09724,0.29171 -0.102663,2.03341 0,2.23874 0.853819,1.70764 -0.154649,-1.58332 0.746247,1.11937 0.0484,0.14519 -0.0579,1.06146 0,1.11937 0.08795,0.0879 0.285176,-0.088 0.373123,0 0.01199,0.012 0,1.02888 0,1.11937 0,0.12437 0,0.49749 0,0.37312 0,-0.24875 -0.248748,-0.74625 0,-0.74625 0.278109,0 0.285176,0.48241 0.373124,0.74625 0.04839,0.14519 -0.0579,1.06146 0,1.11937 0.175889,0.17589 0.570351,-0.17589 0.746244,0 0.175892,0.17589 -0.175893,0.57035 0,0.74624 0.08795,0.0879 0.285178,-0.0879 0.373123,0 0.08794,0.0879 -0.08795,0.28518 0,0.37313 0.08794,0.0879 0.285179,0.0879 0.373123,0 0.175893,-0.1759 -0.175892,-0.57036 0,-0.74625 0.08795,-0.088 0.26188,0.0556 0.373124,0 1.552847,-0.77642 -0.398883,0.0258 0.373123,-0.74624 0.08794,-0.088 0.285176,0.0879 0.373121,0 0.175892,-0.1759 -0.17589,-0.57036 0,-0.74625 0.08795,-0.088 0.285178,0.088 0.373123,0 0.08795,-0.088 -0.08794,-0.28518 0,-0.37312 0.175892,-0.17589 0.570354,0.17589 0.746247,0 0.175892,-0.17589 -0.111244,-0.52376 0,-0.74625 0.07866,-0.15732 0.29446,-0.2158 0.373123,-0.37312 0.111244,-0.22249 -0.175892,-0.57036 0,-0.74625 0.08795,-0.0879 0.285176,0.088 0.373124,0 0.08794,-0.0879 0,-0.24875 0,-0.37312 0,-0.74625 0,-1.49249 0,-2.23874 0,-1.61686 0,-3.23373 0,-4.8506 0,-0.25952 -0.06747,-1.73068 0,-1.86561 0.07866,-0.15732 0.29446,-0.2158 0.37312,-0.37312 0.111244,-0.22249 -0.111244,-0.52376 0,-0.74625 0.07866,-0.15732 0.294463,-0.2158 0.373124,-0.37312 0.05562,-0.11125 0,-0.24875 0,-0.37313 0.124375,-0.12437 0.294462,-0.2158 0.373123,-0.37312 0.05562,-0.11124 -0.05562,-0.26188 0,-0.37312 0.07866,-0.15732 0.294463,-0.2158 0.373123,-0.37312 0.05562,-0.11125 -0.08795,-0.28518 0,-0.37313 0.08795,-0.0879 0.26188,0.0556 0.373124,0 0.157321,-0.0787 0.248748,-0.24874 0.37312,-0.37312 0.124376,-0.12437 0.294463,-0.2158 0.373124,-0.37312 0.05562,-0.11124 -0.05562,-0.26188 0,-0.37312 0.07866,-0.15733 0.248748,-0.24875 0.373123,-0.37313 0.124375,-0.12437 0.2158,-0.29446 0.373123,-0.37312 0.111244,-0.0556 0.285176,0.0879 0.373124,0 0.08794,-0.0879 -0.05562,-0.26188 0,-0.37312 0.07866,-0.15733 0.29446,-0.2158 0.373123,-0.37313 0.05562,-0.11124 -0.08795,-0.28517 0,-0.37312 0.08795,-0.088 0.285176,0.0879 0.373121,0 0.08795,-0.088 -0.08794,-0.28518 0,-0.37312 0.772006,-0.77201 -0.03018,1.17972 0.746246,-0.37312 0.05562,-0.11125 -0.08794,-0.28518 0,-0.37313 0.08795,-0.0879 0.285176,0.0879 0.373124,0 0.08795,-0.0879 -0.05562,-0.26188 0,-0.37312 0.07866,-0.15732 0.248748,-0.24875 0.373123,-0.37313 0.293188,-0.29318 1.746779,-1.62794 1.865614,-1.86561 0.05562,-0.11124 -0.08795,-0.28517 0,-0.37312 0.08795,-0.088 0.248748,0 0.373124,0 0.124372,-0.12438 0.275555,-0.22677 0.37312,-0.37312 0.154268,-0.23141 0.206259,-0.52376 0.373124,-0.74625 0.211071,-0.28143 0.535175,-0.46482 0.746246,-0.74625 0.166865,-0.22248 0.230037,-0.50776 0.373124,-0.74624 0.230719,-0.38453 0.545698,-0.71828 0.746244,-1.11937 0.412453,-0.82491 0.373123,-0.85649 0.373123,-1.49249 0,-0.12438 -0.03933,-0.25513 0,-0.37312 0.900896,-2.70269 -0.107571,0.58826 0.746247,-1.11937 0.175892,-0.35179 0.277733,-0.73781 0.373123,-1.11937 0.03016,-0.12066 -0.05562,-0.26188 0,-0.37313 0.07866,-0.15732 0.275556,-0.22677 0.373124,-0.37312 0.822049,-0.1879 0.197231,-0.76758 0.37312,-1.11937 0.07866,-0.15732 0.267589,-0.23241 0.373124,-0.37312 2.775047,-3.70006 -0.616839,0.7387 1.11937,-1.86561 0.09757,-0.14636 0.275555,-0.22678 0.37312,-0.37313 1.086422,-1.62963 -0.16537,0.12299 0.373124,-1.49249 -0.139462,-0.81285 0.621871,-0.12437 0.746246,-0.37312 0.111244,-0.22249 -0.07866,-0.51026 0,-0.74625 0.111244,-0.33373 0.635003,-0.41251 0.746247,-0.74624 0.07866,-0.23599 -0.111244,-0.52376 0,-0.74625 0.05562,-0.11124 0.3175,0.11125 0.373121,0 0.111244,-0.22248 -0.07866,-0.51026 0,-0.74624 0.05562,-0.16687 0.294463,-0.2158 0.373123,-0.37313 0.05562,-0.11124 -0.05562,-0.26188 0,-0.37312 0.07866,-0.15732 0.317503,-0.20626 0.373124,-0.37312 0.157323,-0.47197 -0.157322,-1.02053 0,-1.49249 0.05562,-0.16687 0.248748,-0.24875 0.373123,-0.37313 0.124375,-0.24874 0.30567,-0.47644 0.373123,-0.74624 0.06033,-0.24132 0,-0.4975 0,-0.74625 0,-0.37312 0,-0.74624 0,-1.11937 0,-0.12437 -0.05562,-0.26188 0,-0.37312 0.07866,-0.15732 0.29446,-0.2158 0.373124,-0.37312 0.05562,-0.11125 0,-0.24875 0,-0.37313 0,-0.24874 0,-0.49749 0,-0.74624 0,-0.87062 0,-1.74124 0,-2.61186 0,-0.17593 0.01691,-1.8487 0,-1.86562 -0.08795,-0.0879 -0.285179,0.088 -0.373124,0 -0.175892,-0.17589 0.175893,-0.57035 0,-0.74624 -0.08795,-0.088 -0.285178,0.0879 -0.373123,0 -0.08795,-0.088 0.08795,-0.28518 0,-0.37312 -0.175893,-0.1759 -0.523759,0.11124 -0.746247,0 -0.157321,-0.0787 -0.215799,-0.29447 -0.373123,-0.37313 -0.111242,-0.0556 -0.261879,0.0556 -0.373121,0 -0.314645,-0.15732 -0.431601,-0.58892 -0.746247,-0.74624 -0.298497,-0.14925 -0.820869,0.14924 -1.11937,0 -0.157321,-0.0787 -0.215799,-0.29446 -0.37312,-0.37312 -0.09811,-0.0491 -1.297379,0 -1.492494,0 -1.119367,0 -2.238737,0 -3.358105,0 -0.124375,0 -0.248748,0 -0.373123,0 -0.124373,0 -0.261879,0.0556 -0.373123,0 -0.157322,-0.0787 -0.2158,-0.29447 -0.373124,-0.37313 -0.09811,-0.049 -1.297376,0 -1.49249,0 -0.124373,0 -0.248748,0 -0.373124,0 -0.124372,0 -0.261879,-0.0556 -0.37312,0 -0.157324,0.0787 -0.215803,0.29446 -0.373124,0.37313 -0.09647,0.0482 -1.974268,0 -2.238737,0 -0.16804,0 -1.005816,0.0568 -1.11937,0 -0.314645,-0.15733 -0.431599,-0.58893 -0.746244,-0.74625 -0.111244,-0.0556 -0.26188,0.0556 -0.373124,0 -0.157324,-0.0787 -0.215802,-0.29446 -0.373123,-0.37312 -0.222488,-0.11125 -0.523759,0.11124 -0.746247,0 -0.157321,-0.0787 -0.215799,-0.29447 -0.37312,-0.37313 -0.111245,-0.0556 -0.285179,0.088 -0.373124,0 -0.08795,-0.0879 0.08795,-0.28517 0,-0.37312 -0.08795,-0.088 -0.285178,0.088 -0.373123,0 -0.08795,-0.088 0.08795,-0.28518 0,-0.37312 -0.175893,-0.17589 -0.570355,0.17589 -0.746247,0 -0.08794,-0.088 0.08795,-0.28518 0,-0.37313 -0.175892,-0.17589 -0.570354,0.1759 -0.746244,0 -0.08795,-0.0879 0.08794,-0.28517 0,-0.37312 -0.186563,-0.18656 -0.932807,0.18656 -1.11937,0 -0.08795,-0.0879 0.08794,-0.28518 0,-0.37312 -0.08795,-0.0879 -0.248748,0 -0.373123,0 -0.746244,0 -1.492491,0 -2.238738,0 -0.168037,0 -1.005813,-0.0568 -1.119367,0 -0.157324,0.0787 -0.215802,0.29446 -0.373124,0.37312 -0.111244,0.0556 -0.261879,-0.0556 -0.373123,0 -0.157321,0.0787 -0.215799,0.29446 -0.373123,0.37312 -0.111242,0.0556 -0.261879,-0.0556 -0.373121,0 -0.314645,0.15733 -0.431601,0.58893 -0.746247,0.74625 -0.111244,0.0556 -0.261879,-0.0556 -0.373123,0 -0.157321,0.0787 -0.215799,0.29446 -0.373123,0.37312 -0.222486,0.11125 -0.746244,-0.24875 -0.746244,0 0,0.51281 0.248748,0.995 0.37312,1.4925 z"
       id="path62"
       inkscape:connector-curvature="0" />
    <path
       style="fill:#00ff00;stroke:#000000;stroke-width:0.26458332px;stroke-linecap:butt;stroke-linejoin:miter;stroke-opacity:1"
       d="m 64.177137,166.40699 c -4.092588,-3.56675 -2.651004,-3.35811 -5.596845,-3.35811 -0.168037,0 -1.005814,0.0568 -1.119368,0 -0.157324,-0.0787 -0.215799,-0.29446 -0.373123,-0.37312 -0.111244,-0.0556 -0.285176,0.0879 -0.373123,0 -0.772004,-0.77201 1.179726,0.0302 -0.373124,-0.74625 -0.111241,-0.0556 -0.285176,0.088 -0.37312,0 -0.175893,-0.17589 0.175889,-0.57035 0,-0.74624 -0.08795,-0.088 -0.285179,0.0879 -0.373124,0 -0.175892,-0.17589 0.111244,-0.52376 0,-0.74625 -0.07866,-0.15732 -0.294462,-0.2158 -0.373123,-0.37312 -0.05562,-0.11125 0.08795,-0.28518 0,-0.37313 -0.08794,-0.0879 -0.285176,0.088 -0.373123,0 -0.08794,-0.0879 0.05562,-0.26187 0,-0.37312 -0.776423,-1.55285 0.02577,0.39888 -0.746247,-0.37312 -0.08795,-0.0879 0.08795,-0.28518 0,-0.37312 -0.08795,-0.0879 -0.285176,0.0879 -0.373121,0 -0.08795,-0.0879 0.08795,-0.28518 0,-0.37313 -0.175892,-0.17589 -0.570354,0.1759 -0.746247,0 -0.08794,-0.0879 0.08794,-0.28517 0,-0.37312 -0.08794,-0.0879 -0.285175,0.0879 -0.373123,0 -0.08794,-0.0879 0.08795,-0.28518 0,-0.37312 -0.08794,-0.088 -0.261879,0.0556 -0.373123,0 -0.157321,-0.0787 -0.2158,-0.29446 -0.373121,-0.37313 -0.222488,-0.11124 -0.570354,0.1759 -0.746247,0 -0.08795,-0.0879 0.08794,-0.28517 0,-0.37312 -0.07628,-0.0763 -0.971428,0.074 -1.11937,0 -0.157321,-0.0787 -0.215799,-0.29446 -0.37312,-0.37312 -0.222488,-0.11124 -0.523759,0.11124 -0.746247,0 -0.157321,-0.0787 -0.2158,-0.29446 -0.373123,-0.37312 -0.234517,-0.11726 -1.257975,0.11725 -1.492491,0 -0.157324,-0.0787 -0.215802,-0.29447 -0.373124,-0.37313 -0.222488,-0.11124 -0.570354,0.1759 -0.746246,0 -0.08795,-0.0879 0.08795,-0.28517 0,-0.37312 -0.17589,-0.17589 -0.570352,0.17589 -0.746244,0 -0.175893,-0.17589 0.175892,-0.57035 0,-0.74624 -0.994995,0 0.124372,0.12437 -0.373124,-0.37313 -0.08795,-0.0879 -0.285178,0.088 -0.373123,0 -0.08794,-0.0879 0,-0.24875 0,-0.37312 0,-0.24875 0.111244,-0.52376 0,-0.74625 -0.05562,-0.11124 -0.285176,0.088 -0.373123,0 -0.175893,-0.17589 0.111244,-0.52375 0,-0.74624 -0.07866,-0.15733 -0.29446,-0.2158 -0.373124,-0.37313 -0.05562,-0.11124 0.05562,-0.26187 0,-0.37312 -0.07866,-0.15732 -0.29446,-0.2158 -0.37312,-0.37312 -0.05562,-0.11125 0.05562,-0.26188 0,-0.37313 -0.07866,-0.15732 -0.294463,-0.21579 -0.373124,-0.37312 -0.05562,-0.11124 0.08794,-0.28517 0,-0.37312 -0.08795,-0.0879 -0.261879,0.0556 -0.373123,0 -1.552848,-0.77642 0.39888,0.0258 -0.373123,-0.74625 -0.08794,-0.0879 -0.3175,0.11125 -0.373124,0 -0.111244,-0.22248 0,-0.49749 0,-0.74624 0,-0.12438 0.08795,-0.28518 0,-0.37312 -0.08795,-0.088 -0.25513,0.0393 -0.373123,0 -1.64546,-0.54849 -0.393854,-0.0415 -0.746244,-0.74625 -0.157324,-0.31465 -0.588923,-0.4316 -0.746247,-0.74625 -0.05562,-0.11124 0.08795,-0.28517 0,-0.37312 -0.08795,-0.088 -0.285176,0.088 -0.373123,0 -0.196652,-0.19665 -0.176469,-0.54959 -0.373121,-0.74624 -0.08795,-0.088 -0.285178,0.0879 -0.373123,0 -0.196654,-0.19666 -0.218856,-0.51485 -0.373124,-0.74625 -0.226441,-0.33966 -0.954013,-0.78866 -1.11937,-1.11937 -0.05562,-0.11124 0.08795,-0.28518 0,-0.37312 -0.08794,-0.088 -0.248748,0 -0.37312,0 -0.124376,-0.12438 -0.275556,-0.22677 -0.373124,-0.37313 -0.154268,-0.23139 -0.285178,-0.4824 -0.373123,-0.74624 -0.03933,-0.11799 0.08794,-0.28518 0,-0.37312 -0.08794,-0.088 -0.285176,0.0879 -0.373123,0 -0.08794,-0.088 0.08795,-0.28518 0,-0.37313 -0.08794,-0.0879 -0.285176,0.088 -0.373124,0 -0.08794,-0.0879 0.05562,-0.26188 0,-0.37312 -0.07866,-0.15732 -0.29446,-0.2158 -0.373123,-0.37312 -0.05562,-0.11125 0.08795,-0.28518 0,-0.37313 -0.08794,-0.0879 -0.285176,0.088 -0.373121,0 -0.175892,-0.17589 0.17589,-0.57035 0,-0.74624 -0.08795,-0.0879 -0.261879,0.0556 -0.373123,0 -0.824995,-0.4125 -0.11579,-0.23158 -0.373124,-0.74625 -0.07866,-0.15732 -0.294462,-0.2158 -0.373123,-0.37312 -0.05562,-0.11124 0,-0.24875 0,-0.37312 0,-0.12438 0,-0.4975 0,-0.37312 0,0.99499 0,1.98998 0,2.98498 0,0.16804 -0.05678,1.00581 0,1.11937 0.07866,0.15732 0.294463,0.2158 0.373123,0.37312 0.117695,0.23539 -0.117697,1.63022 0,1.86561 0.07866,0.15733 0.294463,0.2158 0.373124,0.37313 0.149249,0.2985 -0.149249,0.82087 0,1.11937 0.07866,0.15732 0.29446,0.21579 0.373123,0.37312 0.05562,0.11124 -0.08795,0.28517 0,0.37312 0.08794,0.088 0.285176,-0.088 0.373121,0 0.08795,0.088 -0.08794,0.28518 0,0.37312 0.08795,0.088 0.285178,-0.0879 0.373123,0 0.08795,0.088 -0.05562,0.26188 0,0.37313 0.07866,0.15732 0.294463,0.2158 0.373124,0.37312 0.05562,0.11124 -0.08794,0.28518 0,0.37312 0.08795,0.0879 0.285178,-0.0879 0.373123,0 0.08794,0.0879 -0.05562,0.26188 0,0.37313 0.07866,0.15732 0.294463,0.2158 0.373123,0.37312 0.05562,0.11124 -0.08795,0.28518 0,0.37312 0.08794,0.088 0.285176,-0.0879 0.373124,0 0.08794,0.088 -0.05562,0.26188 0,0.37312 0.07866,0.15733 0.29446,0.21581 0.37312,0.37313 0.06747,0.13493 0,1.60609 0,1.86561 0,1.61687 0,3.23373 0,4.8506 0,0.16804 -0.05678,1.00581 0,1.11937 0.07866,0.15732 0.294463,0.2158 0.373124,0.37312 0.05672,0.11344 0,1.23484 0,1.49249 0,0.12438 0,0.24875 0,0.37312 0,0.12438 0.124375,0.37313 0,0.37313 -0.124373,0 0.124375,-0.37313 0,-0.37313 -0.175893,0 -0.2158,0.29447 -0.373124,0.37313 -0.663329,0.33166 -0.20729,-0.20729 -0.37312,-0.37313 -0.08795,-0.0879 -0.26188,0.0556 -0.373124,0 -1.552847,-0.77642 0.398881,0.0258 -0.373123,-0.74624 -0.08794,-0.0879 -0.285176,0.088 -0.373123,0 -0.08794,-0.0879 0.08795,-0.28518 0,-0.37312 -0.08794,-0.0879 -0.285176,0.0879 -0.373124,0 -0.08794,-0.0879 0.08795,-0.28518 0,-0.37313 -0.08794,-0.0879 -0.285176,0.0879 -0.373123,0 -0.08794,-0.0879 0.08795,-0.28517 0,-0.37312 -0.08794,-0.0879 -0.285176,0.0879 -0.373121,0 -0.08795,-0.0879 0.08794,-0.28518 0,-0.37312 -0.08795,-0.088 -0.285178,0.0879 -0.373123,0 -0.08795,-0.088 0.05562,-0.26188 0,-0.37313 -0.776425,-1.55284 0.02574,0.39889 -0.746247,-0.37312 -0.08795,-0.0879 0.05562,-0.26188 0,-0.37312 -0.07866,-0.15732 -0.29446,-0.2158 -0.373123,-0.37312 -0.05562,-0.11125 0.05562,-0.26188 0,-0.37313 -0.07866,-0.15732 -0.29446,-0.2158 -0.373121,-0.37312 -0.06747,-0.13493 0,-1.60609 0,-1.86561 0,-1.24375 0,-2.48749 0,-3.73123 0,-1.11937 0,-2.23874 0,-3.35811 0,-0.12437 0.08794,-0.28518 0,-0.37312 -0.497499,-0.4975 -0.358034,0.79151 -0.746247,-0.37312 -0.07866,-0.23599 0.111244,-0.52376 0,-0.74625 -0.05562,-0.11125 -0.285178,0.088 -0.373123,0 -1.4562,-1.4562 0.08637,-0.20039 -0.373123,-1.11937 -0.07866,-0.15732 -0.29446,-0.2158 -0.373124,-0.37312 -0.05562,-0.11125 0.08795,-0.28518 0,-0.37313 -0.08794,-0.0879 -0.285176,0.088 -0.37312,0 -0.08795,-0.0879 0.08794,-0.28517 0,-0.37312 -0.08795,-0.0879 -0.285179,0.088 -0.373124,0 -0.08795,-0.0879 0.08794,-0.28517 0,-0.37312 -0.772004,-0.77201 0.03018,1.17972 -0.746246,-0.37312 -0.05562,-0.11125 0.08794,-0.28518 0,-0.37313 -0.08794,-0.0879 -0.285176,0.088 -0.373124,0 -0.08795,-0.0879 0.08795,-0.28517 0,-0.37312 -0.175892,-0.17589 -0.570354,0.17589 -0.746244,0 -0.08795,-0.0879 0.08794,-0.28518 0,-0.37312 -0.08795,-0.088 -0.285178,0.0879 -0.373123,0 -0.175893,-0.1759 0.175892,-0.57036 0,-0.74625 -0.08795,-0.0879 -0.285179,0.088 -0.373124,0 -0.772003,-0.772 1.179725,0.0302 -0.373123,-0.74624 -0.111244,-0.0556 -0.3175,0.11124 -0.373123,0 -0.111244,-0.22249 0.07866,-0.51027 0,-0.74625 -0.05562,-0.16686 -0.29446,-0.2158 -0.373121,-0.37312 -0.05562,-0.11124 0.08795,-0.28518 0,-0.37312 -0.08795,-0.088 -0.285178,0.0879 -0.373124,0 -0.07628,-0.0763 0.07397,-0.97143 0,-1.11937 -0.07866,-0.15733 -0.294462,-0.2158 -0.373123,-0.37313 -0.05562,-0.11124 0.05562,-0.26188 0,-0.37312 -0.07866,-0.15732 -0.294462,-0.2158 -0.373123,-0.37312 -0.149249,-0.2985 0.149249,-0.82087 0,-1.11937 -0.07866,-0.15732 -0.294462,-0.2158 -0.373123,-0.37313 -0.101207,-0.20241 0.102095,-1.39039 0,-1.49249 -0.08795,-0.0879 -0.285177,0.088 -0.373123,0 -0.08795,-0.0879 0,-0.24874 0,-0.37312 0,-0.74624 0,-1.49249 0,-2.23874 0,-0.52247 -0.06831,-2.84837 0,-2.98498 0.07866,-0.15732 0.317501,-0.20626 0.373123,-0.37312 0.07866,-0.23599 0,-0.4975 0,-0.74625 0,-0.12437 -0.05562,-0.26188 0,-0.37312 0.07866,-0.15732 0.317501,-0.20626 0.373123,-0.37312 0.07866,-0.23599 -0.111244,-0.52376 0,-0.74625 0.05562,-0.11124 0.285177,0.0879 0.373123,0 0.08795,-0.0879 -0.03933,-0.25513 0,-0.37312 0.175892,-0.52768 0.570354,-0.96482 0.746247,-1.49249 0.07866,-0.23599 -0.111245,-0.52376 0,-0.74625 0.07866,-0.15732 0.29446,-0.2158 0.373121,-0.37312 0.05562,-0.11124 0,-0.24875 0,-0.37312 0,-0.24875 -0.07866,-0.51027 0,-0.74625 0.05562,-0.16687 0.317502,-0.20626 0.373123,-0.37312 0,-1.69857 -0.175892,-0.0213 0.373123,-1.11937 0.110075,-0.22015 -0.08555,-0.86273 0,-1.11937 0.08795,-0.26384 0.285176,-0.48241 0.373124,-0.74625 0.03933,-0.11799 -0.03933,-0.25513 0,-0.37312 0.227541,-0.68263 0.639066,-1.01219 1.119367,-1.49249 0.124376,-0.12437 0.294463,-0.2158 0.373124,-0.37312 0.05562,-0.11125 -0.05562,-0.26188 0,-0.37313 0.853818,-1.70763 -0.154649,1.58332 0.746246,-1.11937 0.03933,-0.11799 -0.08795,-0.28517 0,-0.37312 0.196652,-0.19665 0.549593,-0.17647 0.746244,-0.37312 0.08795,-0.0879 -0.05562,-0.26188 0,-0.37312 0.157324,-0.31465 0.588926,-0.43161 0.746247,-0.74625 0.05562,-0.11124 -0.05562,-0.26188 0,-0.37312 0.07866,-0.15732 0.294463,-0.2158 0.373123,-0.37313 0.05562,-0.11124 -0.05562,-0.26187 0,-0.37312 0.07866,-0.15732 0.3175,-0.20626 0.373124,-0.37312 0.07866,-0.23599 -0.111244,-0.52376 0,-0.74625 0.05562,-0.11124 0.248748,0 0.373123,0 0.124373,-0.12437 0.3175,-0.20625 0.373121,-0.37312 0,-1.69856 -0.17589,-0.0213 0.373123,-1.11937 0.111244,-0.22249 -0.175892,-0.57035 0,-0.74625 0.08795,-0.0879 0.285179,0.088 0.373123,0 0.772004,-0.772 -1.179724,0.0302 0.373124,-0.74624 0.111244,-0.0556 0.3175,0.11124 0.373123,0 0.111244,-0.22249 -0.111244,-0.52376 0,-0.74625 0.05562,-0.11124 0.3175,0.11125 0.373121,0 0.111244,-0.22248 -0.111242,-0.52375 0,-0.74624 0.05562,-0.11125 0.261879,0.0556 0.373123,0 0.09907,-0.0495 1.069835,-1.0203 1.11937,-1.11937 0.05562,-0.11124 -0.08795,-0.28518 0,-0.37312 0.772004,-0.77201 -0.03018,1.17972 0.746244,-0.37313 0.05562,-0.11124 -0.05562,-0.26188 0,-0.37312 0.07866,-0.15732 0.294463,-0.2158 0.373124,-0.37312 0.05562,-0.11124 -0.05562,-0.26188 0,-0.37312 0.07866,-0.15733 0.294462,-0.21581 0.373123,-0.37313 0.05562,-0.11124 -0.05562,-0.26188 0,-0.37312 0.07866,-0.15732 0.294463,-0.2158 0.373123,-0.37312 0.05562,-0.11125 -0.08795,-0.28518 0,-0.373128 0.08794,-0.08794 0.285176,0.08795 0.373124,0 0.08795,-0.08794 -0.08795,-0.285175 0,-0.37312 0.08795,-0.08795 0.285176,0.08795 0.373123,0 0.18656,-0.186563 -0.186563,-0.932807 0,-1.11937 0.994992,0 -0.124375,0.124375 0.373121,-0.373124 0.175892,-0.175889 0.570354,0.175893 0.746246,0 0.08794,-0.08794 -0.08794,-0.285175 0,-0.373123 0.08794,-0.08795 0.285176,0.08795 0.373124,0 0.175892,-0.17589 -0.175893,-0.570352 0,-0.746244 0.08794,-0.08795 0.285176,0.08795 0.373123,0 0.08794,-0.08795 -0.08795,-0.285179 0,-0.373123 0.17589,-0.175893 0.523759,0.111244 0.746244,0 0.157324,-0.07866 0.215802,-0.294463 0.373124,-0.373124 0.09811,-0.04905 1.297379,0 1.49249,0 0.124376,0 0.497499,0 0.373124,0 -0.248748,0 -0.746244,-0.248748 -0.746244,0 0,0.278109 0.549592,0.176469 0.746244,0.373124 0.01201,0.01198 0,1.028877 0,1.119367 0,1.368118 0,2.736235 0,4.104355 0,0.12437 0,0.24875 0,0.37312 0,0.12438 -0.08794,0.28518 0,0.37312 0.01201,0.012 1.028877,0 1.11937,0 0.994994,0 1.989987,0 2.984981,0 0.124376,0 0.285179,0.088 0.373124,0 0.08795,-0.0879 -0.08794,-0.28517 0,-0.37312 0.08795,-0.0879 0.285178,0.088 0.373123,0 0.08794,-0.0879 -0.08794,-0.28518 0,-0.37312 0.08794,-0.0879 0.261879,0.0556 0.373123,0 0.824995,-0.4125 0.115787,-0.23158 0.373124,-0.74625 0.776422,-1.552845 -0.02577,0.39888 0.746244,-0.37312 0.08795,-0.0879 -0.05562,-0.26188 0,-0.37312 0.776425,-1.552852 -0.02577,0.39888 0.746246,-0.373128 0.08794,-0.08794 -0.05562,-0.261879 0,-0.37312 0.776423,-1.55285 -0.02577,0.398878 0.746247,-0.373124 0.08794,-0.08795 -0.08795,-0.285178 0,-0.373123 0.772004,-0.772004 -0.03018,1.179725 0.746244,-0.373123 0.05562,-0.111244 -0.08794,-0.285176 0,-0.373124 0.08795,-0.08794 0.261879,0.05562 0.373123,0 0.157322,-0.07866 0.2158,-0.29446 0.373124,-0.373123 0.134932,-0.06747 1.606092,0 1.865614,0 0.621871,0 1.243743,0 1.865614,0 0.124375,0 0.248748,0 0.373123,0 0.124376,0 0.26188,-0.05562 0.373124,0 0.314645,0.157324 0.431599,0.588925 0.746244,0.746247 0.222488,0.111244 0.523758,-0.111244 0.746246,0 0.157322,0.07866 0.2158,0.294462 0.373124,0.373123 0.111244,0.05562 0.285176,-0.08795 0.373123,0 0.08794,0.08794 -0.08795,0.285176 0,0.373123 0.17589,0.175893 0.523759,-0.111244 0.746244,0 1.55285,0.776422 -0.39888,-0.02577 0.373124,0.746244 0.08795,0.08795 0.285178,-0.08794 0.373123,0 0.08795,0.08795 -0.05562,0.261878 0,0.373128 0.07866,0.15732 0.294463,0.2158 0.373123,0.37312 0.05678,0.11355 0,0.95133 0,1.11937 0,0.74624 0,1.49249 0,2.23873 0,0.12438 0.111244,0.31751 0,0.37313 -0.222488,0.11124 -0.523758,-0.11125 -0.746246,0 -0.111244,0.0556 0.08795,0.28518 0,0.37312 -0.175893,0.17589 -0.523759,-0.11124 -0.746247,0 -0.157321,0.0787 -0.226772,0.27556 -0.373121,0.37312 -1.884944,1.25663 -0.0087,0.003 -1.11937,0.37313 -0.263837,0.0879 -0.482407,0.28517 -0.746244,0.37312 -0.235984,0.0787 -0.523758,-0.11124 -0.746247,0 -0.314645,0.15732 -0.431601,0.58892 -0.746246,0.74624 -0.111244,0.0556 -0.248748,0 -0.373124,0 -0.124372,0 -0.261879,-0.0556 -0.37312,0 -0.157324,0.0787 -0.215802,0.29447 -0.373124,0.37313 -0.298497,0.14925 -0.82087,-0.14925 -1.11937,0 -0.157321,0.0787 -0.215799,0.29446 -0.373123,0.37312 -0.298498,0.14925 -0.82087,-0.14925 -1.119368,0 -0.157321,0.0787 -0.215799,0.29446 -0.373123,0.37312 -0.111244,0.0556 -0.261879,-0.0556 -0.373123,0 -0.157321,0.0787 -0.226772,0.27556 -0.373121,0.37313 -0.231402,0.15426 -0.514845,0.21885 -0.746247,0.37312 -0.292703,0.19513 -0.431601,0.58892 -0.746246,0.74625 -0.111244,0.0556 -0.285176,-0.088 -0.373124,0 -0.08795,0.0879 0.08795,0.28517 0,0.37312 -0.175889,0.17589 -0.570351,-0.17589 -0.746244,0 -0.175892,0.17589 0.111244,0.52376 0,0.74624 -0.07866,0.15733 -0.294462,0.21581 -0.373123,0.37313 -0.04905,0.0981 0,1.29738 0,1.49249 0,1.11937 0,2.23874 0,3.3581 0,0.0905 -0.01201,1.10737 0,1.11937 0.08794,0.088 0.261879,-0.0556 0.373123,0 0.157322,0.0787 0.2158,0.29446 0.373124,0.37313 0.134932,0.0675 1.606092,0 1.865614,0 1.119367,0 2.238737,0 3.358105,0 0.124375,0 0.248748,0 0.373123,0 0.124375,0 0.285176,-0.0879 0.373123,0 0.175893,0.17589 -0.175892,0.57035 0,0.74624 0.175893,0.17589 0.570355,-0.17589 0.746244,0 0.08979,0.0898 -0.08978,1.40271 0,1.49249 0.08795,0.0879 0.285179,-0.0879 0.373124,0 0.08795,0.0879 0,0.24875 0,0.37313 0,0.12437 0,0.24874 0,0.37312 0,1.11937 0,2.23874 0,3.3581 0,0.12438 0,0.24876 0,0.37313 0,0.12437 0.08795,0.28518 0,0.37312 -0.08794,0.0879 -0.26188,-0.0556 -0.373124,0 -0.447746,0.22388 -0.671621,0.8955 -1.119367,1.11937 -0.111244,0.0556 -0.285176,-0.088 -0.373123,0 -0.08794,0.0879 0.08795,0.28518 0,0.37312 -0.175893,0.17589 -0.570355,-0.17589 -0.746247,0 -0.08795,0.0879 0.05562,0.26188 0,0.37313 -0.07866,0.15732 -0.248748,0.24874 -0.373121,0.37312 -0.124375,0.12437 -0.215802,0.29446 -0.373123,0.37312 -0.111244,0.0556 -0.261879,-0.0556 -0.373124,0 -0.157321,0.0787 -0.215799,0.29446 -0.373123,0.37313 -0.222488,0.11124 -0.523758,-0.11125 -0.746244,0 -0.157324,0.0787 -0.215802,0.29446 -0.373123,0.37312 -0.111244,0.0556 -0.285179,-0.088 -0.373124,0 -0.08795,0.0879 0,0.24875 0,0.37312 0,0.62187 0,1.24374 0,1.86561 0,0.13703 -0.015,1.47748 0,1.4925 0.08794,0.0879 0.285176,-0.088 0.373124,0 0.08795,0.0879 -0.08795,0.28517 0,0.37312 0.175892,0.17589 0.570354,-0.17589 0.746244,0 0.08795,0.0879 -0.08794,0.28518 0,0.37312 0.08795,0.088 0.24875,0 0.373123,0 0,0.12438 -0.05562,0.26188 0,0.37312 0.213879,0.42776 0.778526,0.51902 1.11937,0.74625 0.124373,0.12437 0.248748,0.24875 0.373121,0.37312 0,0.12438 -0.08795,0.28518 0,0.37312 0.08795,0.088 0.261879,-0.0556 0.373123,0 0.157324,0.0787 0.248751,0.24876 0.373124,0.37313 0.124375,0.12437 0.294462,0.2158 0.373123,0.37312 0.05562,0.11125 -0.08794,0.28518 0,0.37312 0.08795,0.088 0.261879,-0.0556 0.373123,0 1.552848,0.77643 -0.398883,-0.0258 0.373124,0.74625 0.08794,0.088 0.285175,-0.088 0.37312,0 0.175893,0.17589 -0.175889,0.57035 0,0.74625 0.08795,0.0879 0.285179,-0.088 0.373124,0 0.772004,0.772 -1.179724,-0.0302 0.373123,0.74624 0.111244,0.0556 0.285179,-0.088 0.373123,0 0.186561,0.18656 -0.186563,0.93281 0,1.11937 0.08795,0.0879 0.285176,-0.088 0.373124,0 0.175892,0.17589 -0.175893,0.57035 0,0.74625 0.08794,0.0879 0.285176,-0.0879 0.373123,0 0.17589,0.17589 -0.111244,0.52376 0,0.74624 0.07866,0.15732 0.3175,0.20626 0.373121,0.37312 0,1.69857 -0.17589,0.0214 0.373123,1.11937 0.05672,0.11345 0,1.23485 0,1.49249 0,0.25953 0.06747,1.73069 0,1.86562 -0.07866,0.15732 -0.29446,0.2158 -0.373123,0.37312 -0.149249,0.2985 0.149251,0.82087 0,1.11937 -0.07866,0.15732 -0.29446,0.2158 -0.373121,0.37312 -0.05562,0.11125 0.08794,0.28518 0,0.37313 -0.08795,0.0879 -0.285178,-0.088 -0.373123,0 -0.08795,0.0879 0.05562,0.26188 0,0.37312 -0.07866,0.15732 -0.294463,0.2158 -0.373124,0.37312 -0.05562,0.11125 0.05562,0.26188 0,0.37313 -0.07866,0.15732 -0.294462,0.2158 -0.373123,0.37312 -0.111244,0.22249 0.111244,0.52376 0,0.74624 -0.07866,0.15733 -0.294463,0.21581 -0.373123,0.37313 -0.05562,0.11124 0,0.24875 0,0.37312 0,0.12437 0,0.24875 0,0.37312 0,0.74625 0,1.49249 0,2.23874 0,0.17593 -0.01691,1.8487 0,1.86562 0.08795,0.0879 0.285178,-0.088 0.373123,0 0.08794,0.0879 -0.05562,0.26187 0,0.37312 0.776425,1.55285 -0.02577,-0.39888 0.746247,0.37312 0.08794,0.088 -0.08795,0.28518 0,0.37312 0.994994,0 -0.124376,-0.12437 0.373123,0.37313 0.08794,0.0879 0.285176,-0.088 0.373121,0 0.08795,0.0879 -0.08794,0.28517 0,0.37312 0.196654,0.19665 0.482409,0.28518 0.746246,0.37312 0.117991,0.0393 0.285176,-0.0879 0.373124,0 0.08795,0.088 -0.111244,0.3175 0,0.37312 0.222488,0.11125 0.510262,-0.0787 0.746244,0 0.333732,0.11125 0.431601,0.58893 0.746247,0.74625 0.796864,0.39843 -0.05062,-0.39843 0.746246,0 0.157322,0.0787 0.2158,0.29446 0.373124,0.37312 0.222485,0.11125 0.523756,-0.11124 0.746244,0 1.552847,0.77643 -0.398881,-0.0258 0.373123,0.74625 0.08795,0.088 0.285179,-0.0879 0.373123,0 0.08795,0.088 0,0.24875 0,0.37312 0.124376,0 0.285176,-0.0879 0.373124,0 0.175892,0.17589 -0.175893,0.57036 0,0.74625 0.08795,0.0879 0.285176,-0.0879 0.373123,0 0.08795,0.0879 0,0.24875 0,0.37312 0,0.62187 0,1.24374 0,1.86562 0,0.49749 0,0.99499 0,1.49249 0,0.24875 0,0.99499 0,0.74624 0,-0.24875 0,-0.99499 0,-0.74624 0,0.37312 0,0.74624 0,1.11937 0,0.76643 0.03933,0.25513 -0.373123,1.49249 z"
       id="path64"
       inkscape:connector-curvature="0" />
    <path
       style="fill:#00ff00;stroke:#000000;stroke-width:0.26458332px;stroke-linecap:butt;stroke-linejoin:miter;stroke-opacity:1"
       d="m 83.579527,82.827462 c -0.497499,0.248748 -0.964816,0.570352 -1.492493,0.746244 -0.235982,0.07866 -0.510262,-0.07866 -0.746244,0 -0.166868,0.05562 -0.215802,0.294463 -0.373124,0.373124 -0.111244,0.05562 -0.261879,-0.05562 -0.373123,0 -0.401095,0.200546 -0.718275,0.545697 -1.119367,0.746246 -0.399426,0.19971 -0.796275,-0.323096 -1.492494,0.373121 -0.08794,0.08795 0.08795,0.285179 0,0.373123 -0.08794,0.08795 -0.248748,0 -0.373123,0 -0.248748,0 -0.523756,-0.111244 -0.746244,0 -0.111244,0.05562 0.111244,0.317503 0,0.373124 -0.222488,0.111244 -0.510262,-0.07866 -0.746247,0 -0.166865,0.05562 -0.215799,0.294462 -0.373123,0.373123 -0.111244,0.05562 -0.26188,-0.05562 -0.373124,0 -0.157321,0.07866 -0.248748,0.248748 -0.37312,0.373123 -0.248751,0.248748 -0.453546,0.551112 -0.746247,0.746244 -0.103487,0.06899 -0.261879,-0.05562 -0.373123,0 -0.157322,0.07866 -0.248748,0.248751 -0.373124,0.373124 -0.426908,0.42691 -0.441693,0.520353 -1.119367,0.746247 -0.117991,0.03933 -0.285179,-0.08795 -0.373124,0 -0.08794,0.08794 0.08795,0.285175 0,0.373123 -0.08794,0.08795 -0.285175,-0.08795 -0.373123,0 -0.08795,0.08795 0.08795,0.285176 0,0.373123 -0.08795,0.08794 -0.285176,-0.08795 -0.373123,0 -0.08795,0.08794 0.08795,0.285176 0,0.373121 -0.08795,0.08795 -0.285176,-0.08795 -0.373121,0 -0.08795,0.08795 0.05562,0.261879 0,0.373123 -0.07866,0.157324 -0.294463,0.215802 -0.373123,0.373124 -0.05678,0.113553 0,0.95133 0,1.119367 0,0.09049 -0.01201,1.107371 0,1.11937 0.08795,0.08795 0.261879,-0.05562 0.373123,0 0.157321,0.07866 0.2158,0.294463 0.373121,0.373123 0.222488,0.111244 0.570354,-0.175892 0.746246,0 0.08795,0.08794 -0.08794,0.285176 0,0.373124 0.102095,0.102095 1.290077,-0.101209 1.492491,0 0.157324,0.07866 0.215802,0.29446 0.373124,0.37312 0.111244,0.05562 0.261879,-0.05562 0.373123,0 0.157321,0.07866 0.206256,0.317503 0.373123,0.373124 0.206344,0.06878 1.862982,0 2.238738,0 1.119367,0 2.238737,0 3.358105,0 0.124375,0 0.285178,-0.08795 0.373123,0 0.08795,0.08795 -0.08795,0.285178 0,0.373123 0.08795,0.08794 0.248748,0 0.373123,0 0.746244,0 1.492491,0 2.238738,0 0.124372,0 0.285176,-0.08795 0.373123,0 0.08795,0.08794 -0.08795,0.285176 0,0.373124 0.18656,0.18656 0.932807,-0.186563 1.119367,0 0.08795,0.08794 -0.08794,0.285175 0,0.373123 0.08795,0.08794 0.248749,0 0.373124,0 0,0.124373 -0.08795,0.285176 0,0.373123 0.175892,0.17589 0.570354,-0.175892 0.746247,0 0.08794,0.08795 -0.08795,0.285176 0,0.373121 0.08794,0.08795 0.285175,-0.08795 0.37312,0 0.08795,0.08795 -0.08794,0.285178 0,0.373123 0.08795,0.08795 0.285179,-0.08795 0.373124,0 0.08795,0.08795 -0.05562,0.26188 0,0.373124 0.07866,0.157321 0.248748,0.248748 0.373123,0.373123 0.124375,0.124373 0.215799,0.29446 0.373123,0.373123 0.111244,0.05562 0.26188,-0.05562 0.373124,0 0.157321,0.07866 0.248748,0.248748 0.37312,0.373121 0.124376,0.124375 0.294463,0.215802 0.373124,0.373123 0.05562,0.111244 -0.08794,0.285179 0,0.373124 0.08795,0.08795 0.261879,-0.05562 0.373123,0 0.157324,0.07866 0.248748,0.248748 0.373123,0.373123 0.373124,0.373123 0.697228,0.802764 1.119368,1.119367 0.0684,0.05131 1.327573,-0.04123 1.492493,0 0.269806,0.06746 0.482407,0.285178 0.746244,0.373128 0.117994,0.0393 0.26188,-0.0556 0.373124,0 0.157323,0.0787 0.215802,0.29446 0.373123,0.37312 0.202414,0.10121 1.390396,-0.1021 1.492491,0 0.08795,0.0879 -0.08795,0.28518 0,0.37312 0.07628,0.0763 0.971428,-0.074 1.11937,0 0.157321,0.0787 0.215799,0.29446 0.373123,0.37313 0.222486,0.11124 0.570352,-0.1759 0.746244,0 0.772004,0.772 -1.179724,-0.0302 0.373124,0.74624 0.09647,0.0482 1.974267,0 2.238737,0 0.124375,0 0.285176,0.088 0.373123,0 0.175897,-0.17589 -0.175892,-0.57035 0,-0.74624 0.08795,-0.0879 0.285177,0.0879 0.373127,0 0.17589,-0.1759 -0.11125,-0.52376 0,-0.74625 0.0787,-0.15732 0.29446,-0.2158 0.37312,-0.37312 0.11124,-0.22249 -0.17589,-0.570359 0,-0.746248 0.0879,-0.08795 0.28518,0.08795 0.37312,0 0.18656,-0.186563 -0.18656,-0.932807 0,-1.11937 0.088,-0.08794 0.28518,0.08795 0.37312,0 0.1759,-0.175893 -0.11124,-0.523759 0,-0.746247 0.0787,-0.157321 0.29447,-0.215799 0.37313,-0.373121 0.0556,-0.111244 -0.0879,-0.285178 0,-0.373123 0.0879,-0.08795 0.28517,0.08795 0.37312,0 0.088,-0.08795 -0.0556,-0.261879 0,-0.373123 0.0787,-0.157322 0.29446,-0.2158 0.37312,-0.373124 0.0556,-0.111244 -0.0879,-0.285176 0,-0.373123 0.088,-0.08795 0.28518,0.08795 0.37312,0 0.1759,-0.17589 -0.17588,-0.570352 0,-0.746244 0.088,-0.08795 0.28518,0.08794 0.37313,0 0.17589,-0.175892 -0.17589,-0.570354 0,-0.746247 0.0879,-0.08795 0.28518,0.08794 0.37312,0 0.0879,-0.08795 -0.0879,-0.285176 0,-0.373123 0.0879,-0.08795 0.25513,0.03933 0.37312,0 0.52768,-0.175893 0.95289,-0.611344 1.4925,-0.746244 0.24132,-0.06033 0.49749,0 0.74624,0 0.12437,0 0.26188,0.05562 0.37313,0 1.13785,-0.568931 -0.68243,-0.295799 1.11936,-0.746247 0.24132,-0.06033 0.52376,0.111244 0.74625,0 0.11124,-0.05562 -0.0556,-0.261879 0,-0.373123 0.0787,-0.157322 0.2158,-0.29446 0.37312,-0.373124 0.22015,-0.110074 0.86272,0.08555 1.11937,0 0.26384,-0.08794 0.48241,-0.285175 0.74625,-0.373123 0.23598,-0.07866 0.52376,0.111244 0.74624,0 0.15733,-0.07866 0.2158,-0.29446 0.37312,-0.373121 0.11125,-0.05562 0.26188,0.05562 0.37313,0 0.15732,-0.07866 0.20626,-0.317502 0.37312,-0.373123 0.37091,-0.123637 1.54857,0.158522 1.86562,0 0.11124,-0.05562 -0.088,-0.285179 0,-0.373123 0.17589,-0.175893 0.52375,0.111244 0.74624,0 0.17279,-0.08639 1.27304,-1.273043 1.49249,-1.492491 0.16804,-0.16804 1.06259,-0.949039 1.11937,-1.11937 0.0787,-0.235982 -0.11124,-0.523759 0,-0.746244 0.0556,-0.111244 0.28518,0.08794 0.37312,0 0.088,-0.08795 -0.0393,-0.255133 0,-0.373124 0.088,-0.263837 0.28518,-0.482409 0.37313,-0.746246 0.0393,-0.117991 -0.0556,-0.26188 0,-0.373124 0.15732,-0.314645 0.58892,-0.431599 0.74624,-0.746244 0.14925,-0.2985 -0.14925,-0.820872 0,-1.11937 0.15732,-0.314645 0.58893,-0.431601 0.74625,-0.746244 0.11124,-0.222488 -0.17589,-0.570354 0,-0.746246 0.0879,-0.08795 0.28518,0.08794 0.37312,0 0.17589,-0.175893 -0.17589,-0.570355 0,-0.746247 0.0879,-0.08795 0.26188,0.05562 0.37312,0 0.825,-0.412496 0.11579,-0.231577 0.37313,-0.746244 0.22387,-0.447749 0.89549,-0.671624 1.11937,-1.11937 0.0556,-0.111244 -0.0556,-0.26188 0,-0.373124 0.18358,-0.367162 1.3089,-1.125328 1.49249,-1.49249 0.11124,-0.222489 -0.17589,-0.570355 0,-0.746247 0.99499,0 -0.12438,0.124375 0.37312,-0.373121 0.0879,-0.08795 0.28518,0.08794 0.37312,0 0.0879,-0.08795 0,-0.24875 0,-0.373123 0,-0.124375 0,-0.248751 0,-0.373123 0,-0.124376 -0.12437,-0.373124 0,-0.373124 0.12438,0 0,0.497496 0,0.373124 0,-0.248749 0.11125,-0.523759 0,-0.746247 -0.0556,-0.111244 -0.24875,0 -0.37312,0 -0.74624,0 -1.49249,0 -2.23874,0 -0.12437,0 -0.24875,0 -0.37312,0 -0.12437,0 -0.26188,-0.05562 -0.37312,0 -0.15733,0.07866 -0.2158,0.294463 -0.37313,0.373123 -0.22248,0.111244 -0.57035,-0.175892 -0.74624,0 -0.088,0.08795 0,0.248748 0,0.373124 -0.12437,0 -0.28518,-0.08795 -0.37312,0 -0.088,0.08794 0.11124,0.3175 0,0.373123 -0.22249,0.111244 -0.51027,-0.07866 -0.74625,0 -0.16686,0.05562 -0.2158,0.29446 -0.37312,0.373123 -0.2985,0.149249 -0.82087,-0.149251 -1.11937,0 -0.15732,0.07866 -0.2158,0.29446 -0.37312,0.373121 -0.22249,0.111244 -0.57036,-0.17589 -0.74625,0 -0.772,0.772006 1.17972,-0.03018 -0.37312,0.746247 -0.11125,0.05562 -0.24875,0 -0.37313,0 -0.12437,0 -0.26187,-0.05562 -0.37312,0 -0.15732,0.07866 -0.2158,0.294462 -0.37312,0.373123 -0.11125,0.05562 -0.26188,-0.05562 -0.37312,0 -0.15733,0.07866 -0.2158,0.29446 -0.37313,0.373123 -0.11124,0.05562 -0.26188,-0.05562 -0.37312,0 -0.15732,0.07866 -0.2158,0.29446 -0.37312,0.373121 -0.11125,0.05562 -0.26188,-0.05562 -0.37313,0 -0.15732,0.07866 -0.2158,0.294463 -0.37312,0.373123 -0.11703,0.05852 -1.74145,0.03104 -1.86561,0 -0.26981,-0.06745 -0.47644,-0.30567 -0.74625,-0.373123 -0.48264,-0.120661 -1.02052,0.157324 -1.49249,0 -0.16687,-0.05562 -0.22677,-0.275556 -0.37312,-0.373121 -0.18791,-0.822052 -0.76759,-0.197231 -1.11937,-0.373123 -0.31465,-0.157324 -0.4316,-0.588923 -0.74625,-0.746247 -0.39843,-0.199215 -0.34781,0.199216 -0.74624,0 -0.31465,-0.157321 -0.43161,-0.588923 -0.74625,-0.746244 -0.11124,-0.05562 -0.28518,0.08794 -0.37312,0 -0.088,-0.08795 0.0879,-0.285178 0,-0.373123 -0.088,-0.08795 -0.26188,0.05562 -0.37313,0 -1.23749,-1.237493 0.35179,0.17589 -0.74624,-0.373123 -0.31465,-0.157324 -0.4316,-0.588923 -0.74625,-0.746247 -0.11124,-0.05562 -0.28517,0.08795 -0.37312,0 -0.0879,-0.08794 0.088,-0.285176 0,-0.373124 -0.0879,-0.08794 -0.26188,0.05562 -0.37312,0 -0.15732,-0.07866 -0.2158,-0.29446 -0.37313,-0.37312 -0.11124,-0.05562 -0.28517,0.08794 -0.37312,0 -0.0879,-0.08795 0.088,-0.285179 0,-0.373124 -0.0763,-0.07628 -0.97143,0.07397 -1.119367,0 -0.157324,-0.07866 -0.215802,-0.294462 -0.373123,-0.373123 -0.113554,-0.05678 -0.951331,0 -1.119367,0 -0.746247,0 -1.492494,0 -2.238738,0 -0.746247,0 -1.492493,0 -2.238737,0 -0.124376,0 -0.248751,0 -0.373124,0 -0.124375,0 -0.261879,-0.05562 -0.373123,0 -0.157321,0.07866 -0.2158,0.294463 -0.373123,0.373123 -0.222489,0.111244 -0.570355,-0.175892 -0.746244,0 -0.08795,0.08795 0.08794,0.285176 0,0.373124 -0.175893,0.175889 -0.523759,-0.111244 -0.746247,0 -1.552848,0.776422 0.39888,-0.02577 -0.373124,0.746244 -0.08794,0.08795 -0.285175,-0.08794 -0.373123,0 -0.08794,0.08795 0.08795,0.285178 0,0.373123 -0.175892,0.175893 -0.523758,-0.111244 -0.746244,0 -1.55285,0.776425 0.398881,-0.02577 -0.373123,0.746247 -0.08795,0.08795 -0.285179,-0.08795 -0.373124,0 -0.175892,0.17589 0.175893,0.570354 0,0.746244 -0.08794,0.08795 -0.285175,-0.08795 -0.373123,0 -0.08795,0.08795 0.08795,0.285178 0,0.373123 -0.08795,0.08795 -0.285176,-0.08794 -0.373123,0 -0.08794,0.08795 0.05562,0.26188 0,0.373124 -0.157322,0.314645 -0.588923,0.431601 -0.746244,0.746246 -0.111244,0.222486 0.175889,0.570352 0,0.746244 -0.08795,0.08795 -0.285179,-0.08794 -0.373124,0 -0.175892,0.175893 0.175893,0.570355 0,0.746247 -0.08795,0.08795 -0.285178,-0.08795 -0.373123,0 -0.175892,0.175892 0.175892,0.570354 0,0.746247 -0.08794,0.08795 -0.285176,-0.08795 -0.373123,0 -0.08795,0.08795 0.05562,0.261879 0,0.37312 -0.07866,0.157324 -0.29446,0.215803 -0.373124,0.373124 -0.111244,0.222488 0.175893,0.570354 0,0.746247 -0.08794,0.08794 -0.285176,-0.08795 -0.37312,0 -0.08795,0.08794 0.05562,0.261879 0,0.373123 -0.776426,1.552847 0.02577,-0.398883 -0.746247,0.373123 -0.08795,0.08795 0.124373,0.373121 0,0.373121 -0.512808,0 -0.994995,-0.248748 -1.492491,-0.373121 z"
       id="path66"
       inkscape:connector-curvature="0" />
    <path
       style="fill:#00ff00;stroke:#000000;stroke-width:0.26458332px;stroke-linecap:butt;stroke-linejoin:miter;stroke-opacity:1"
       d="m 64.177137,113.05041 c 0,1.36812 0,2.73624 0,4.10436 0,0.12437 0,0.24875 0,0.37312 0,0.12437 -0.08795,0.28518 0,0.37312 0.08795,0.088 0.285176,-0.0879 0.373123,0 0.08795,0.088 -0.08795,0.28518 0,0.37313 0.772004,0.772 -0.03018,-1.17973 0.746244,0.37312 0.05562,0.11124 -0.08795,0.28517 0,0.37312 0.08795,0.0879 0.261879,-0.0556 0.373123,0 0.157322,0.0787 0.2158,0.29446 0.373124,0.37312 0.222488,0.11125 0.523758,-0.11124 0.746244,0 0.157324,0.0787 0.215802,0.29447 0.373123,0.37313 0.111244,0.0556 0.248751,0 0.373124,0 0.124375,0 0.248748,0 0.373123,0 0.621871,0 1.243743,0 1.865614,0 0.621871,0 1.243743,0 1.865614,0 0.124375,0 0.285179,0.0879 0.373123,0 0.08795,-0.088 -0.08794,-0.28518 0,-0.37313 0.08795,-0.0879 0.285176,0.0879 0.373124,0 0.08795,-0.0879 0,-0.24875 0,-0.37312 0,-0.62187 0,-1.24374 0,-1.86561 0,-0.17593 0.01691,-1.84871 0,-1.86562 -0.772004,-0.772 0.03018,1.17973 -0.746247,-0.37312 -0.05562,-0.11124 0.08795,-0.28518 0,-0.37312 -0.175892,-0.1759 -0.570354,0.17589 -0.746244,0 -0.175892,-0.1759 0.17589,-0.57036 0,-0.74625 -0.175892,-0.17589 -0.570354,0.17589 -0.746247,0 -0.08794,-0.0879 0.08794,-0.28518 0,-0.37312 -0.07628,-0.0763 -0.971428,0.074 -1.11937,0 -0.157321,-0.0787 -0.215799,-0.29447 -0.37312,-0.37313 -0.09811,-0.049 -1.297379,0 -1.492494,0 -0.994994,0 -1.989987,0 -2.984981,0 z"
       id="path68"
       inkscape:connector-curvature="0" />
    <path
       style="fill:#00ff00;stroke:#000000;stroke-width:0.26458332px;stroke-linecap:butt;stroke-linejoin:miter;stroke-opacity:1"
       d="m 58.953415,87.678058 c -0.497496,0.373123 -1.052761,0.67964 -1.492491,1.11937 -0.015,0.01503 0,1.355466 0,1.492491 0,0.195114 -0.04905,1.394383 0,1.49249 0.07866,0.157324 0.248748,0.248751 0.373124,0.373124 0.124372,0.124375 0.215799,0.294462 0.373123,0.373123 0.111241,0.05562 0.25513,-0.03933 0.373121,0 0.26384,0.08795 0.482409,0.285176 0.746246,0.373123 0.117991,0.03933 0.26188,-0.05562 0.373124,0 0.157321,0.07866 0.215799,0.29446 0.373123,0.373124 0.111244,0.05562 0.285176,-0.08795 0.373121,0 0.08795,0.08795 -0.08794,0.285176 0,0.37312 0.08795,0.08795 0.248751,0 0.373123,0 0.248751,0 0.523759,-0.111241 0.746247,0 0.111244,0.05562 -0.08794,0.285179 0,0.373124 0.07628,0.07628 0.971428,-0.07397 1.119367,0 0.157324,0.07866 0.215802,0.294463 0.373124,0.373123 0.134935,0.06747 1.606092,0 1.865614,0 0.175927,0 1.848704,0.01691 1.865614,0 0.015,-0.01503 0,-1.355466 0,-1.492491 0,-0.195114 0.04906,-1.394383 0,-1.492493 -0.157321,-0.314642 -0.588923,-0.431599 -0.746244,-0.746244 -0.05562,-0.111244 0.08795,-0.285179 0,-0.373123 -0.08795,-0.08794 -0.285179,0.08794 -0.373124,0 -0.08794,-0.08794 0.08794,-0.285176 0,-0.373124 -0.08794,-0.08794 -0.261879,0.05562 -0.373123,0 -0.314645,-0.157321 -0.431601,-0.588923 -0.746244,-0.746244 -0.111244,-0.05562 -0.285178,0.08794 -0.373123,0 -0.08795,-0.08795 0.08795,-0.285178 0,-0.373123 -0.08795,-0.08795 -0.26188,0.05562 -0.373124,0 -0.157324,-0.07866 -0.215799,-0.294463 -0.373123,-0.373123 -0.113554,-0.05678 -0.95133,0 -1.119367,0 -0.994995,0 0.124372,0.124372 -0.373124,-0.373124 -0.08177,-0.08177 -1.615498,0.06253 -1.865614,0 -0.381563,-0.09539 -0.746247,-0.248748 -1.11937,-0.373123 z"
       id="path70"
       inkscape:connector-curvature="0" />
    <path
       style="fill:#00ff00;stroke:#000000;stroke-width:0.26458332px;stroke-linecap:butt;stroke-linejoin:miter;stroke-opacity:1"
       d="m 132.45863,145.13898 c -0.29914,0.7661 -1.29839,-0.65674 -1.86562,-0.37312 -0.15732,0.0787 -0.2158,0.29446 -0.37312,0.37312 -0.11125,0.0556 -0.28518,-0.0879 -0.37313,0 -0.772,0.77201 1.17973,-0.0302 -0.37312,0.74625 -0.22249,0.11124 -0.52376,-0.11125 -0.74625,0 -0.15732,0.0787 -0.2158,0.29446 -0.37312,0.37312 -0.22248,0.11124 -0.57035,-0.17589 -0.74624,0 -0.77201,0.77201 1.17972,-0.0302 -0.37313,0.74625 -0.11124,0.0556 -0.26188,-0.0556 -0.37312,0 -0.15732,0.0787 -0.2158,0.29446 -0.37312,0.37312 -0.11125,0.0556 -0.3175,-0.11124 -0.37312,0 -0.995,1.98999 0.74624,0.18656 -0.37313,0.74625 -0.67942,0.33971 -0.21872,0.28304 -0.37312,0.74624 -0.088,0.26384 -0.24875,0.4975 -0.37312,0.74625 -0.12438,0.24875 -0.21886,0.51484 -0.37313,0.74624 -0.71179,1.0677 -0.0699,-0.57148 -0.74624,1.11937 -0.14607,0.36518 -0.27773,0.73781 -0.37312,1.11937 -0.0302,0.12066 0.0556,0.26188 0,0.37312 -0.88098,1.76196 0.19622,-2.27739 -0.74625,1.4925 -0.0933,0.37312 0.18656,0.74624 0,1.11936 -0.0556,0.11125 -0.28518,-0.0879 -0.37312,0 -0.0879,0.088 0,0.24875 0,0.37313 0,0.12437 0,0.24874 0,0.37312 0,1.61687 0,3.23373 0,4.8506 0,0.74624 0,1.49249 0,2.23874 0,0.12437 -0.0879,0.28517 0,0.37312 0.0879,0.0879 0.28517,-0.088 0.37312,0 0.088,0.0879 -0.0556,0.26188 0,0.37312 0.0787,0.15732 0.29446,0.2158 0.37312,0.37312 0.0556,0.11125 -0.0556,0.26188 0,0.37313 0.0787,0.15732 0.29446,0.2158 0.37313,0.37312 0.0556,0.11124 -0.088,0.28518 0,0.37312 0.0879,0.088 0.28517,-0.0879 0.37312,0 0.0879,0.088 -0.0556,0.26188 0,0.37312 0.77642,1.55285 -0.0258,-0.39888 0.74624,0.37313 0.0879,0.0879 -0.0879,0.28518 0,0.37312 0.0879,0.0879 0.26188,-0.0556 0.37313,0 0.15732,0.0787 0.2158,0.29446 0.37312,0.37312 0.11124,0.0556 0.26188,-0.0556 0.37312,0 0.15732,0.0787 0.2158,0.29446 0.37313,0.37313 0.11124,0.0556 0.26187,-0.0556 0.37312,0 0.15732,0.0787 0.2158,0.29446 0.37312,0.37312 0.23452,0.11726 1.25797,-0.11726 1.49249,0 0.15732,0.0787 0.2158,0.29446 0.37312,0.37312 0.0836,0.0418 1.40383,0 1.4925,0 0.74624,0 1.49249,0 2.23874,0 1.98998,0 3.97997,0 5.96996,0 0.995,0 1.98999,0 2.98498,0 0.12438,0 0.28518,-0.0879 0.37313,0 0.0879,0.0879 -0.088,0.28518 0,0.37312 0.17589,0.1759 0.57035,-0.17589 0.74624,0 0.088,0.0879 -0.088,0.28518 0,0.37313 0.088,0.0879 0.28518,-0.0879 0.37313,0 0.0879,0.0879 -0.0393,0.25513 0,0.37312 0.0879,0.26384 0.17646,0.54959 0.37312,0.74624 0.0879,0.088 0.28517,-0.0879 0.37312,0 0.088,0.088 0,0.24876 0,0.37313 0,0.37312 -0.0905,0.75738 0,1.11937 0.0427,0.17064 0.29446,0.2158 0.37312,0.37312 0.0556,0.11124 0,0.24875 0,0.37312 0,0.24875 0,0.4975 0,0.74625 0,0.87062 0,1.74124 0,2.61186 0,0.24875 0.0445,0.50151 0,0.74624 -0.20512,1.12818 -0.41675,2.2598 -0.74624,3.35811 -0.0505,0.16847 -0.29446,0.2158 -0.37312,0.37312 -0.0556,0.11125 0,0.24875 0,0.37313 0,0.37312 0,0.74624 0,1.11937 0,0.74624 0,1.49249 0,2.23873 0,0.24875 0.0787,0.51027 0,0.74625 -0.0556,0.16686 -0.31751,0.20626 -0.37313,0.37312 -0.0787,0.23598 0,0.4975 0,0.74625 0,0.24875 0,0.49749 0,0.74624 0,1.11937 0,2.23874 0,3.35811 0,0.74625 0,1.49249 0,2.23874 0,0.16804 -0.0568,1.00581 0,1.11936 0.0787,0.15733 0.29446,0.21581 0.37313,0.37313 0.11124,0.22248 -0.11125,0.52376 0,0.74624 0.15732,0.31465 0.58892,0.43161 0.74624,0.74625 0.0556,0.11124 -0.0556,0.26188 0,0.37312 0.15732,0.31465 0.58892,0.4316 0.74625,0.74625 0.0556,0.11124 -0.0556,0.26188 0,0.37312 1.23749,1.23749 -0.1759,-0.35178 0.37312,0.74624 0.0787,0.15733 0.29446,0.21581 0.37312,0.37313 0.0556,0.11124 -0.0879,0.28518 0,0.37312 0.088,0.0879 0.28518,-0.0879 0.37312,0 0.1759,0.17589 -0.17589,0.57036 0,0.74625 0.77201,0.772 -0.0302,-1.17973 0.74625,0.37312 0.10121,0.20242 -0.10209,1.3904 0,1.49249 0.088,0.088 0.28518,-0.0879 0.37312,0 0.1759,0.17589 -0.11124,0.52376 0,0.74625 0.22388,0.44775 0.8955,0.67162 1.11937,1.11937 0.0556,0.11124 -0.0879,0.28517 0,0.37312 0.0879,0.0879 0.28518,-0.088 0.37312,0 0.18657,0.18656 -0.18656,0.93281 0,1.11937 0.0879,0.0879 0.28518,-0.088 0.37313,0 0.18656,0.18656 -0.18656,0.9328 0,1.11937 0.0879,0.0879 0.28517,-0.088 0.37312,0 0.17589,0.17589 -0.17589,0.57035 0,0.74624 0.088,0.088 0.37312,-0.12437 0.37312,0 0,0.12438 -0.49749,0 -0.37312,0 1.69978,0 0.33166,0.24875 0.74625,-0.37312 0.19513,-0.2927 0.55111,-0.45355 0.74624,-0.74625 0.069,-0.10348 -0.0879,-0.28517 0,-0.37312 0.19666,-0.19665 0.54959,-0.17647 0.74625,-0.37312 0.19665,-0.19665 0.21885,-0.51485 0.37312,-0.74625 0.19513,-0.2927 0.55111,-0.45354 0.74625,-0.74624 0.15426,-0.23141 0.21885,-0.51485 0.37312,-0.74625 0.0976,-0.14635 0.24875,-0.24875 0.37312,-0.37312 0.12438,-0.12438 0.22677,-0.27556 0.37313,-0.37312 0.2314,-0.15427 0.51484,-0.21886 0.74624,-0.37313 0.51331,-0.3422 0.38375,-0.57562 0.74625,-1.11937 0.0976,-0.14635 0.29446,-0.2158 0.37312,-0.37312 0.0556,-0.11124 -0.0556,-0.26188 0,-0.37312 0.22387,-0.44775 0.8955,-0.67162 1.11937,-1.11937 0.0556,-0.11125 -0.088,-0.28518 0,-0.37313 0.088,-0.0879 0.28518,0.088 0.37312,0 0.772,-0.772 -1.17972,0.0302 0.37312,-0.74624 0.11125,-0.0556 0.26188,0.0556 0.37313,0 0.15732,-0.0787 0.24875,-0.24875 0.37312,-0.37312 0.12437,-0.12438 0.29446,-0.2158 0.37312,-0.37313 0.0556,-0.11124 -0.0879,-0.28517 0,-0.37312 0.0879,-0.0879 0.28518,0.088 0.37313,0 0.19665,-0.19665 0.21885,-0.51484 0.37312,-0.74624 0.0976,-0.14635 0.29446,-0.21581 0.37312,-0.37313 0.0556,-0.11124 -0.0556,-0.26188 0,-0.37312 0.15732,-0.31465 0.58892,-0.4316 0.74625,-0.74625 0.0556,-0.11124 -0.0556,-0.26188 0,-0.37312 0.0787,-0.15732 0.29446,-0.2158 0.37312,-0.37312 0.0556,-0.11124 -0.0556,-0.26188 0,-0.37312 0.15732,-0.31465 0.58892,-0.43161 0.74625,-0.74625 0.0556,-0.11124 -0.088,-0.28518 0,-0.37312 0.0879,-0.0879 0.3175,0.11124 0.37312,0 0.11124,-0.22249 -0.11124,-0.52376 0,-0.74625 0.0556,-0.11124 0.26188,0.0556 0.37312,0 0.15732,-0.0787 0.29446,-0.2158 0.37312,-0.37312 0.11125,-0.22249 -0.17589,-0.57036 0,-0.74625 0.088,-0.0879 0.28518,0.0879 0.37313,0 0.0879,-0.0879 -0.088,-0.28517 0,-0.37312 0.0879,-0.088 0.28518,0.0879 0.37312,0 0.0879,-0.088 -0.0879,-0.28518 0,-0.37312 0.772,-0.77201 -0.0302,1.17972 0.74625,-0.37313 0.0556,-0.11124 -0.088,-0.28517 0,-0.37312 0.0879,-0.0879 0.28517,0.0879 0.37312,0 0.17589,-0.17589 -0.17589,-0.57035 0,-0.74625 0.0879,-0.0879 0.28518,0.088 0.37312,0 0.088,-0.0879 -0.0556,-0.26187 0,-0.37312 0.15732,-0.31464 0.58893,-0.4316 0.74625,-0.74624 0.0556,-0.11125 -0.0556,-0.26188 0,-0.37313 0.0787,-0.15732 0.29446,-0.2158 0.37312,-0.37312 0.11124,-0.22249 -0.11124,-0.52376 0,-0.74624 0.0787,-0.15733 0.24875,-0.24875 0.37312,-0.37313 0.12438,0 0.3175,0.11125 0.37313,0 0.11124,-0.22249 -0.0488,-0.50232 0,-0.74624 0.0771,-0.38567 0.27773,-0.73781 0.37312,-1.11937 0.0603,-0.24132 0,-0.4975 0,-0.74625 0,-0.87062 0,-1.74124 0,-2.61186 0,-0.12437 -0.0393,-0.25513 0,-0.37312 0.42874,-1.28623 0.37312,-0.2764 0.37312,-1.11937 0,-0.37575 -0.0688,-2.03239 0,-2.23874 0.0556,-0.16686 0.29446,-0.2158 0.37312,-0.37312 0.0556,-0.11124 0,-0.24875 0,-0.37312 0,-0.22215 -0.07,-2.09877 0,-2.23874 0.0556,-0.11124 0.28518,0.088 0.37313,0 0.002,-0.002 -0.003,-1.1069 0,-1.11937 0.0674,-0.2698 0.30567,-0.47644 0.37312,-0.74625 0.12066,-0.48264 -0.12066,-1.00984 0,-1.49249 0.0674,-0.2698 0.28518,-0.4824 0.37312,-0.74624 0.11602,-0.34805 -0.11495,-1.52076 0,-1.86562 0.0556,-0.16686 0.27556,-0.22677 0.37313,-0.37312 0.15426,-0.2314 0.24874,-0.4975 0.37312,-0.74624 0.12437,-0.24875 0.28518,-0.48241 0.37312,-0.74625 0.0393,-0.11799 0,-0.24875 0,-0.37312 0,-0.24875 -0.0787,-0.51027 0,-0.74625 0.0556,-0.16687 0.27556,-0.22677 0.37313,-0.37312 0.70685,0.0425 0.24874,-0.87062 0.37312,-1.11937 0.0787,-0.15732 0.29446,-0.2158 0.37312,-0.37312 0.0556,-0.11125 0,-0.24875 0,-0.37313 0.24875,-0.24874 0.55111,-0.45354 0.74625,-0.74624 0.069,-0.10349 -0.0556,-0.26188 0,-0.37313 0.0787,-0.15732 0.27555,-0.22677 0.37312,-0.37312 0.30853,-0.4628 0.4975,-0.99499 0.74625,-1.49249 0.12437,-0.24875 0.24874,-0.4975 0.37312,-0.74625 0.12437,-0.24874 0.30567,-0.47643 0.37312,-0.74624 0.0603,-0.24132 0,-0.4975 0,-0.74625 0,-0.12437 -0.0556,-0.26188 0,-0.37312 0.85382,-1.70764 -0.15465,1.58332 0.74625,-1.11937 0.13216,-0.39648 -0.13216,-1.09601 0,-1.49249 0.0879,-0.26384 0.28517,-0.48241 0.37312,-0.74625 0.0393,-0.11799 0,-0.24874 0,-0.37312 0.12437,-0.24875 0.28518,-0.48241 0.37312,-0.74625 0.10011,-0.30032 -0.11921,-1.25405 0,-1.49249 0.0787,-0.15732 0.29446,-0.2158 0.37312,-0.37312 0.0556,-0.11124 -0.0556,-0.26188 0,-0.37312 0.0787,-0.15732 0.29447,-0.2158 0.37313,-0.37312 0.0556,-0.11125 0,-0.24875 0,-0.37313 0,-0.12437 0,-0.24875 0,-0.37312 0,-0.62187 0,-1.24374 0,-1.86561 0,-0.12438 -0.12437,-0.37313 0,-0.37313 0.12437,0 0.12437,0.37313 0,0.37313 -0.17589,0 -0.2158,-0.29447 -0.37313,-0.37313 -0.66332,-0.33166 -0.20729,0.20729 -0.37312,0.37313 -0.0879,0.0879 -0.26188,-0.0556 -0.37312,0 -0.15732,0.0787 -0.2158,0.29446 -0.37312,0.37312 -0.22249,0.11124 -0.57036,-0.17589 -0.74625,0 -0.0879,0.0879 0.088,0.28517 0,0.37312 -0.0879,0.088 -0.28518,-0.088 -0.37312,0 -0.088,0.088 0.0879,0.28518 0,0.37312 -0.17589,0.1759 -0.57036,-0.17589 -0.74625,0 -0.0879,0.088 0.088,0.28518 0,0.37313 -0.17589,0.17589 -0.57035,-0.1759 -0.74624,0 -0.088,0.0879 0.0879,0.28517 0,0.37312 -0.088,0.0879 -0.26188,-0.0556 -0.37313,0 -0.31464,0.15732 -0.4316,0.58892 -0.74624,0.74625 -0.11125,0.0556 -0.26188,-0.0556 -0.37312,0 -0.15733,0.0787 -0.21581,0.29446 -0.37313,0.37312 -0.22249,0.11124 -0.51026,-0.0787 -0.74624,0 -0.26384,0.0879 -0.48241,0.28518 -0.74625,0.37312 -0.11799,0.0393 -0.25513,-0.0393 -0.37312,0 -0.26384,0.088 -0.47644,0.30567 -0.74625,0.37312 -0.24132,0.0603 -0.52376,-0.11124 -0.74624,0 -0.11125,0.0556 0.0879,0.28518 0,0.37313 -0.088,0.0879 -0.24875,0 -0.37313,0 -0.12437,0 -0.28517,0.0879 -0.37312,0 -0.088,-0.0879 0.088,-0.28518 0,-0.37313 -0.088,-0.0879 -0.28518,0.088 -0.37312,0 -0.088,-0.0879 0.0556,-0.26188 0,-0.37312 -0.0787,-0.15732 -0.29447,-0.2158 -0.37313,-0.37312 -0.14924,-0.2985 0.14925,-0.82087 0,-1.11937 -0.0787,-0.15732 -0.29446,-0.2158 -0.37312,-0.37312 -0.11124,-0.22249 0.11124,-0.52376 0,-0.74625 -0.0787,-0.15732 -0.29446,-0.2158 -0.37312,-0.37312 -0.0556,-0.11125 0.0556,-0.26188 0,-0.37312 -0.15732,-0.31465 -0.58893,-0.43161 -0.74625,-0.74625 -0.0556,-0.11125 0.0556,-0.26188 0,-0.37312 -0.15732,-0.31465 -0.58892,-0.4316 -0.74624,-0.74625 -0.0556,-0.11124 0.0879,-0.28518 0,-0.37312 -0.088,-0.088 -0.26188,0.0556 -0.37313,0 -0.44774,-0.22388 -0.67162,-0.8955 -1.11936,-1.11937 -0.11125,-0.0556 -0.28518,0.088 -0.37313,0 -0.0879,-0.088 0.11125,-0.3175 0,-0.37312 -0.22249,-0.11125 -0.51026,0.0787 -0.74624,0 -0.16687,-0.0556 -0.2158,-0.29447 -0.37312,-0.37313 -0.11125,-0.0556 -0.26188,0.0556 -0.37313,0 -0.15732,-0.0787 -0.2158,-0.29446 -0.37312,-0.37312 -0.11125,-0.0556 -0.28518,0.088 -0.37312,0 -0.0879,-0.0879 0.0879,-0.28518 0,-0.37312 -0.0879,-0.088 -0.24875,0 -0.37313,0 -0.87062,0 -1.74124,0 -2.61186,0 -0.87062,0 -1.74124,0 -2.61186,0 -0.12437,0 -0.28518,-0.088 -0.37312,0 -0.17589,0.17589 0.11124,0.52376 0,0.74624 -0.15732,0.31465 -0.58892,0.43161 -0.74625,0.74625 -0.11124,0.22249 0.1759,0.57035 0,0.74624 -0.0879,0.088 -0.28517,-0.0879 -0.37312,0 -0.088,0.088 0.0556,0.26188 0,0.37313 -0.0787,0.15732 -0.29446,0.2158 -0.37312,0.37312 -0.11125,0.22249 0.17589,0.57036 0,0.74625 -0.088,0.0879 -0.26188,-0.0556 -0.37312,0 -0.31465,0.15732 -0.43161,0.58892 -0.74625,0.74624 -0.11125,0.0556 -0.26188,-0.0556 -0.37312,0 -0.44775,0.22388 -0.67163,0.8955 -1.11937,1.11937 -0.11125,0.0556 -0.26188,-0.0556 -0.37313,0 -0.15732,0.0787 -0.21579,0.29446 -0.37312,0.37312 -0.23451,0.11726 -1.25797,-0.11726 -1.49249,0 -0.15732,0.0787 -0.2158,0.29447 -0.37312,0.37313 -0.11125,0.0556 -0.24875,0 -0.37313,0 -0.12437,0 -0.24874,0 -0.37312,0 -0.74624,0 -1.49249,0 -2.23873,0 -1.4925,0 -2.98499,0 -4.47748,0 -0.12437,0 -0.24875,0 -0.37312,0 -0.12438,0 -0.28518,0.0879 -0.37313,0 -0.0879,-0.088 0.0879,-0.28518 0,-0.37313 -0.17589,-0.17589 -0.52375,0.11125 -0.74624,0 -0.31465,-0.15732 -0.4316,-0.58892 -0.74625,-0.74624 -0.22248,-0.11125 -0.57035,0.17589 -0.74624,0 -0.088,-0.088 0.0879,-0.28518 0,-0.37312 -0.1759,-0.1759 -0.52376,0.11124 -0.74625,0 -0.15732,-0.0787 -0.2158,-0.29447 -0.37312,-0.37313 -0.11124,-0.0556 -0.28518,0.088 -0.37312,0 -0.088,-0.0879 0.12437,-0.37312 0,-0.37312 -0.51281,0 -0.995,0.24875 -1.49249,0.37312 z"
       id="path72"
       inkscape:connector-curvature="0" />
    <path
       style="fill:#00ff00;stroke:#000000;stroke-width:0.26458332px;stroke-linecap:butt;stroke-linejoin:miter;stroke-opacity:1"
       d="m 138.05547,118.64726 c -0.62187,0 -1.24375,0 -1.86562,0 -0.12437,0 -0.26188,-0.0556 -0.37312,0 -0.15732,0.0787 -0.2158,0.29446 -0.37312,0.37312 -0.11125,0.0556 -0.25513,-0.0393 -0.37313,0 -0.52767,0.17589 -0.95288,0.61134 -1.49249,0.74625 -0.24132,0.0603 -0.49749,0 -0.74624,0 -0.636,0 -0.66759,-0.0393 -1.4925,0.37312 -0.15732,0.0787 -0.20625,0.3175 -0.37312,0.37312 -1.11937,0.37313 -0.37312,-0.18656 -1.11937,0 -0.38156,0.0954 -0.7378,0.27773 -1.11937,0.37313 -0.25392,0.0635 -0.91531,-0.10203 -1.11936,0 -0.15733,0.0787 -0.21581,0.29446 -0.37313,0.37312 -0.11124,0.0556 -0.28517,-0.0879 -0.37312,0 -0.0879,0.0879 0.088,0.28518 0,0.37312 -0.0879,0.088 -0.26188,-0.0556 -0.37312,0 -0.0991,0.0495 -1.06984,1.0203 -1.11937,1.11937 -0.0556,0.11124 0.0879,0.28518 0,0.37312 -0.088,0.088 -0.28518,-0.0879 -0.37312,0 -0.1759,0.17589 0.11124,0.52376 0,0.74625 -0.0787,0.15732 -0.29447,0.2158 -0.37313,0.37312 -0.0556,0.11125 0.0556,0.26188 0,0.37312 -0.0787,0.15733 -0.29446,0.2158 -0.37312,0.37313 -0.0556,0.11124 0,0.24875 0,0.37312 0,0.24875 0,0.4975 0,0.74625 0,0.87061 0,1.74124 0,2.61186 0,0.99499 0,1.98999 0,2.98498 0,0.12437 0,0.24875 0,0.37312 0,0.12438 -0.088,0.28518 0,0.37312 0.19665,0.19666 0.54959,0.17647 0.74625,0.37313 0.0879,0.0879 -0.088,0.28517 0,0.37312 0.0879,0.088 0.26188,-0.0556 0.37312,0 0.15732,0.0787 0.22677,0.27556 0.37312,0.37312 0.2314,0.15427 0.51485,0.21886 0.74625,0.37312 0.2927,0.19514 0.41251,0.63501 0.74624,0.74625 0.23599,0.0787 0.50493,-0.0603 0.74625,0 0.80903,0.20226 1.05658,0.91711 1.86561,1.11937 0.24133,0.0603 0.51027,-0.0787 0.74625,0 0.33373,0.11124 0.41251,0.635 0.74624,0.74625 0.23599,0.0787 0.51027,-0.0787 0.74625,0 0.16687,0.0556 0.20626,0.3175 0.37313,0.37312 0.35397,0.11799 0.76539,-0.11799 1.11936,0 0.26384,0.0879 0.48241,0.28517 0.74625,0.37312 0.11799,0.0393 0.26188,-0.0556 0.37312,0 1.76196,0.88098 -2.2774,-0.19622 1.49249,0.74625 0.74625,0.18656 0,-0.37312 1.11937,0 0.16687,0.0556 0.20248,0.33046 0.37312,0.37312 0.36199,0.0905 0.74625,0 1.11937,0 0.74625,0 1.49249,0 2.23874,0 0.74625,0 1.49249,0 2.23874,0 0.37312,0 0.78563,0.16687 1.11937,0 0.11124,-0.0556 -0.11125,-0.3175 0,-0.37312 0.22248,-0.11124 0.52375,0.11124 0.74624,0 0.11124,-0.0556 -0.0879,-0.28518 0,-0.37312 0.088,-0.088 0.26188,0.0556 0.37312,0 0.17279,-0.0864 1.27305,-1.27305 1.4925,-1.4925 0.12437,-0.12437 0.2158,-0.29446 0.37312,-0.37312 0.11124,-0.0556 0.28518,0.088 0.37312,0 0.0879,-0.088 -0.0556,-0.26188 0,-0.37312 0.0787,-0.15733 0.24875,-0.24875 0.37312,-0.37313 0.12438,-0.12437 0.21581,-0.29446 0.37313,-0.37312 0.11124,-0.0556 0.26188,0.0556 0.37312,0 0.15732,-0.0787 0.22677,-0.27555 0.37312,-0.37312 0.2314,-0.15427 0.51485,-0.21886 0.74625,-0.37313 0.14635,-0.0976 0.2158,-0.29446 0.37312,-0.37312 0.11125,-0.0556 0.24875,0 0.37313,0 0.24874,0 0.51026,0.0787 0.74624,0 0.33373,-0.11124 0.41252,-0.635 0.74625,-0.74624 0.34485,-0.11496 1.51756,0.11601 1.86561,0 0.26384,-0.088 0.48241,-0.28518 0.74625,-0.37313 0.23484,-0.0783 1.52929,0 1.86561,0 0.16804,0 1.00582,-0.0568 1.11937,0 0.15732,0.0787 0.2158,0.29447 0.37312,0.37313 0.11125,0.0556 0.28518,-0.088 0.37313,0 0.0879,0.0879 -0.0879,0.28517 0,0.37312 0.0879,0.088 0.28517,-0.088 0.37312,0 0.0879,0.088 -0.0879,0.28518 0,0.37312 1.82829,0.91415 0.31209,-0.12206 0.74625,0.74625 0.0787,0.15732 0.24874,0.24875 0.37312,0.37312 0.12437,0.12438 0.2158,0.29446 0.37312,0.37312 0.11124,0.0556 0.28518,-0.0879 0.37312,0 0.088,0.088 -0.0879,0.28518 0,0.37313 0.088,0.0879 0.28518,-0.088 0.37313,0 0.0879,0.0879 -0.0556,0.26188 0,0.37312 0.0787,0.15732 0.24874,0.24875 0.37312,0.37312 0.12437,0.12438 0.2158,0.29447 0.37312,0.37313 0.22249,0.11124 0.57035,-0.1759 0.74625,0 0.0879,0.0879 -0.088,0.28517 0,0.37312 0.0879,0.0879 0.26188,-0.0556 0.37312,0 0.15732,0.0787 0.2158,0.29446 0.37312,0.37312 0.22249,0.11125 0.57036,-0.17589 0.74625,0 0.0879,0.0879 -0.088,0.28518 0,0.37313 0.0879,0.0879 0.24875,0 0.37312,0 0.12438,0 0.24875,0 0.37312,0 1.11937,0 2.23874,0 3.35811,0 0.17593,0 1.8487,0.0169 1.86562,0 0.0879,-0.088 -0.0879,-0.28518 0,-0.37313 0.772,-0.772 -0.0302,1.17973 0.74624,-0.37312 0.11124,-0.22249 -0.11124,-0.52376 0,-0.74625 0.0787,-0.15732 0.29446,-0.2158 0.37312,-0.37312 0.0556,-0.11124 0,-0.24875 0,-0.37312 0,-0.24875 0,-0.4975 0,-0.74625 0,-0.87062 0,-1.74124 0,-2.61186 0,-0.24875 0,-0.4975 0,-0.74624 0,-0.12438 -0.0879,-0.28518 0,-0.37313 0.088,-0.0879 0.28518,0.088 0.37313,0 0.0879,-0.0879 -0.069,-0.26963 0,-0.37312 0.19513,-0.2927 0.49749,-0.4975 0.74624,-0.74625 0.12438,-0.12437 0.3175,-0.20625 0.37313,-0.37312 0.0787,-0.23598 -0.11125,-0.52376 0,-0.74624 0.0556,-0.11125 0.28517,0.0879 0.37312,0 0.0879,-0.0879 -0.0393,-0.25514 0,-0.37313 0.0879,-0.26383 0.17647,-0.54959 0.37312,-0.74624 0.088,-0.088 0.28518,0.0879 0.37312,0 0.1759,-0.17589 -0.11124,-0.52376 0,-0.74625 0.0787,-0.15732 0.29447,-0.2158 0.37313,-0.37312 0.0556,-0.11125 0,-0.24875 0,-0.37312 0,-0.12438 0,-0.24875 0,-0.37313 0,-0.74624 0,-1.49249 0,-2.23874 0,-0.17592 0.0169,-1.8487 0,-1.86561 -0.088,-0.0879 -0.28518,0.088 -0.37313,0 -0.18656,-0.18656 0.18656,-0.93281 0,-1.11937 -0.772,-0.772 0.0302,1.17973 -0.74624,-0.37312 -0.0556,-0.11124 0.0393,-0.25513 0,-0.37312 -0.088,-0.26384 -0.28518,-0.48241 -0.37312,-0.74625 -0.0393,-0.11799 0.0556,-0.26188 0,-0.37312 -0.0787,-0.15733 -0.29447,-0.2158 -0.37313,-0.37312 -0.11124,-0.22249 0.17589,-0.57036 0,-0.74625 -0.0879,-0.0879 -0.26188,0.0556 -0.37312,0 -0.82499,-0.4125 -0.11579,-0.23158 -0.37312,-0.74625 -0.0787,-0.15732 -0.29447,-0.2158 -0.37313,-0.37312 -0.0556,-0.11124 0.088,-0.28518 0,-0.37312 -0.0879,-0.0879 -0.28517,0.0879 -0.37312,0 -0.18656,-0.18657 0.18656,-0.93281 0,-1.11937 -0.0879,-0.088 -0.28518,0.0879 -0.37312,0 -0.0879,-0.088 0.0556,-0.26188 0,-0.37312 -0.0787,-0.15733 -0.29446,-0.2158 -0.37312,-0.37313 -0.0883,-0.17661 0.0612,-2.36695 0,-2.61186 -0.0427,-0.17064 -0.31751,-0.20626 -0.37313,-0.37312 -0.0787,-0.23598 0.0603,-0.50492 0,-0.74625 -0.0674,-0.2698 -0.30567,-0.47643 -0.37312,-0.74624 -0.0603,-0.24132 0.0787,-0.51026 0,-0.74625 -0.0556,-0.16686 -0.29446,-0.2158 -0.37312,-0.37312 -0.0556,-0.11125 0.0393,-0.25513 0,-0.37312 -0.9009,-2.70269 0.10757,0.58826 -0.74625,-1.11937 -0.0556,-0.11125 0.0556,-0.26188 0,-0.37313 -0.0787,-0.15732 -0.29446,-0.21579 -0.37312,-0.37312 -0.45949,-0.91898 1.08308,0.33683 -0.37313,-1.11937 -0.0879,-0.0879 -0.28517,0.0879 -0.37312,0 -0.0879,-0.0879 0.0556,-0.26188 0,-0.37312 -0.0787,-0.15732 -0.29446,-0.2158 -0.37312,-0.37312 -0.0556,-0.11125 0.088,-0.28518 0,-0.37313 -0.088,-0.0879 -0.28518,0.0879 -0.37312,0 -0.088,-0.0879 0.0879,-0.28517 0,-0.37312 -0.088,-0.0879 -0.28518,0.0879 -0.37313,0 -0.0879,-0.0879 0.0556,-0.26188 0,-0.37312 -0.0787,-0.15732 -0.29446,-0.2158 -0.37312,-0.37312 -0.0556,-0.11125 0.0556,-0.26188 0,-0.37313 -0.34346,-0.68692 -0.77591,-0.0593 -1.11937,-0.74624 -0.25733,-0.51467 0.45187,-0.33375 -0.37312,-0.74625 -0.11124,-0.0556 -0.28518,0.088 -0.37312,0 -0.088,-0.0879 0.069,-0.26963 0,-0.37312 -1.34194,-2.012898 -0.11614,0.25698 -1.4925,-1.119368 -0.0879,-0.08795 0.088,-0.285179 0,-0.373124 -0.19665,-0.196654 -0.51484,-0.218855 -0.74624,-0.373123 -0.14635,-0.09757 -0.2158,-0.294463 -0.37312,-0.373123 -0.11125,-0.05562 -0.26188,0.05562 -0.37313,0 -0.34292,-0.171461 -1.20937,-1.398117 -1.49249,-1.492491 -0.23598,-0.07866 -0.51026,0.07866 -0.74624,0 -0.16687,-0.05562 -0.2158,-0.294463 -0.37313,-0.373123 -0.11124,-0.05562 -0.25513,0.03933 -0.37312,0 -0.26384,-0.08795 -0.48241,-0.285176 -0.74625,-0.373124 -0.21051,-0.07017 -0.87418,0 -1.11937,0 -0.62187,0 -1.24374,0 -1.86561,0 -0.25952,0 -1.73068,-0.06747 -1.86561,0 -0.31465,0.157324 -0.43161,0.588923 -0.74625,0.746247 -0.11124,0.05562 -0.28518,-0.08795 -0.37312,0 -0.088,0.08795 0.0879,0.285176 0,0.373123 -0.77201,0.772004 0.0302,-1.179726 -0.74625,0.373121 -0.0556,0.111244 0.0556,0.261879 0,0.373123 -0.0787,0.157324 -0.29446,0.215802 -0.37312,0.373124 -0.0556,0.111244 0.088,0.285178 0,0.373123 -0.0879,0.08794 -0.3175,-0.111244 -0.37312,0 -0.11125,0.222488 0.0787,0.510262 0,0.746247 -0.0556,0.166865 -0.29446,0.215799 -0.37313,0.37312 -0.0556,0.111248 0.088,0.285178 0,0.373128 -0.0879,0.0879 -0.3175,-0.11125 -0.37312,0 -0.15852,0.31704 0.12364,1.4947 0,1.86561 -0.0556,0.16687 -0.29446,0.2158 -0.37312,0.37312 -0.0556,0.11125 0,0.24875 0,0.37313 0,0.24874 0.0603,0.50492 0,0.74624 -0.0675,0.26981 -0.28518,0.48241 -0.37313,0.74625 -0.12062,0.36188 0.12381,1.99112 0,2.23873 -0.0787,0.15733 -0.29446,0.21581 -0.37312,0.37313 -0.11921,0.23843 0.10011,1.19216 0,1.49249 -0.0879,0.26384 -0.28517,0.48241 -0.37312,0.74625 -0.0393,0.11799 0.0879,0.28517 0,0.37312 -0.088,0.0879 -0.3175,-0.11125 -0.37312,0 -0.14925,0.2985 0.14925,0.82087 0,1.11937 -0.0787,0.15732 -0.29447,0.2158 -0.37313,0.37312 -0.074,0.14794 0.0763,1.04309 0,1.11937 -0.0879,0.0879 -0.28517,-0.0879 -0.37312,0 -0.0879,0.0879 0.0556,0.26188 0,0.37312 -0.0787,0.15732 -0.29446,0.2158 -0.37312,0.37312 -0.0556,0.11125 0.0879,0.28518 0,0.37313 -0.088,0.0879 -0.28518,-0.088 -0.37313,0 -0.0879,0.0879 0.088,0.28518 0,0.37312 -0.0879,0.0879 -0.28517,-0.0879 -0.37312,0 -0.19665,0.19665 -0.17647,0.54959 -0.37312,0.74625 -0.088,0.0879 -0.26188,-0.0556 -0.37312,0 -0.31465,0.15732 -0.43161,0.58892 -0.74625,0.74624 -0.11124,0.0556 -0.28518,-0.0879 -0.37312,0 -0.088,0.0879 0.0879,0.28518 0,0.37312 -0.088,0.0879 -0.24875,0 -0.37312,0 0,0.12438 0.0879,0.28518 0,0.37313 -0.1759,0.17589 -0.52376,-0.11125 -0.74625,0 -0.15732,0.0787 -0.2158,0.29446 -0.37312,0.37312 -0.22249,0.11125 -0.52376,-0.11124 -0.74625,0 -0.15732,0.0787 -0.2158,0.29446 -0.37312,0.37312 -0.11125,0.0556 -0.28518,-0.0879 -0.37313,0 -0.0879,0.088 0.088,0.28518 0,0.37313 -0.0879,0.0879 -0.24874,0 -0.37312,0 -0.12437,0 -0.24875,0 -0.37312,0 -0.995,0 -1.98999,0 -2.98498,0 -0.12438,0 -0.24875,0 -0.37313,0 -0.12437,0 -0.28518,-0.0879 -0.37312,0 -0.0879,0.0879 0,0.24875 0,0.37312 0,0.12437 0,0.24875 0,0.37312 0,0.12438 0,0.24875 0,0.37313 0,0.12437 -0.0879,0.28517 0,0.37312 0.0879,0.0879 0.24875,0 0.37312,0 0.12438,0 0.24875,0 0.37313,0 0.49749,0 0.99499,0 1.49249,0 z"
       id="path78"
       inkscape:connector-curvature="0" />
    <path
       style="fill:#00ff00;stroke:#000000;stroke-width:0.26458332px;stroke-linecap:butt;stroke-linejoin:miter;stroke-opacity:1"
       d="m 133.95112,98.871745 c -1.12171,-0.456388 -2.19675,-0.373123 -3.35811,-0.373123 -0.16804,0 -1.00582,-0.05678 -1.11937,0 -0.15732,0.07866 -0.2158,0.294462 -0.37312,0.373123 -0.22249,0.111244 -0.52376,-0.111244 -0.74625,0 -0.15732,0.07866 -0.2158,0.294463 -0.37312,0.373123 -0.11124,0.05562 -0.26188,-0.05562 -0.37312,0 -0.15733,0.07866 -0.22677,0.275556 -0.37313,0.373124 -0.2314,0.154265 -0.54959,0.176469 -0.74624,0.37312 -0.0879,0.08795 0.0556,0.261878 0,0.373128 -0.0787,0.15732 -0.24875,0.24874 -0.37312,0.37312 -0.12438,0.12437 -0.21581,0.29446 -0.37313,0.37312 -0.11124,0.0556 -0.28518,-0.0879 -0.37312,0 -0.088,0.088 0.0556,0.26188 0,0.37313 -0.77643,1.55284 0.0258,-0.39889 -0.74625,0.37312 -0.19665,0.19665 -0.21885,0.51484 -0.37312,0.74624 -0.0976,0.14635 -0.3175,0.20626 -0.37312,0.37313 -0.0787,0.23598 0.0787,0.51026 0,0.74624 0.13946,0.81285 -0.62187,0.12438 -0.74625,0.37312 -0.11124,0.22249 0.0787,0.51027 0,0.74625 -0.0556,0.16687 -0.29446,0.2158 -0.37312,0.37312 -0.0556,0.11125 0.0556,0.26188 0,0.37313 -0.0787,0.15732 -0.2158,0.29446 -0.37312,0.37312 -0.11125,0.0556 -0.3175,-0.11124 -0.37313,0 -0.16686,0.33373 0.16687,0.78564 0,1.11937 -0.0787,0.15732 -0.33046,0.20248 -0.37312,0.37312 -0.0905,0.36198 0.0732,0.75349 0,1.11937 -0.0545,0.27271 -0.28518,0.48241 -0.37312,0.74625 -0.0393,0.11799 0,0.24874 0,0.37312 0,0.24875 0,0.4975 0,0.74624 0,0.74625 0,1.4925 0,2.23874 0,0.1475 -0.0797,1.70626 0,1.86562 0.77642,1.55284 -0.0258,-0.39889 0.74624,0.37312 0.4975,0.4975 -0.79151,0.35803 0.37313,0.74624 0.47196,0.15733 1.02052,-0.15732 1.49249,0 0.16686,0.0556 0.2158,0.29447 0.37312,0.37313 0.0836,0.0418 1.40383,0 1.49249,0 0.87062,0 1.74124,0 2.61186,0 0.62187,0 1.24375,0 1.86562,0 0.24875,0 0.51026,0.0787 0.74624,0 0.16687,-0.0556 0.24875,-0.24875 0.37312,-0.37313 0.37313,-0.12437 0.73781,-0.27773 1.11938,-0.37312 0.24132,-0.0603 0.52375,0.11125 0.74624,0 0.31464,-0.15732 0.41251,-0.635 0.74625,-0.74624 0.23598,-0.0787 0.53927,0.13798 0.74624,0 0.2314,-0.15427 0.17647,-0.5496 0.37312,-0.74625 0.088,-0.0879 0.28518,0.0879 0.37313,0 0.19665,-0.19665 0.17647,-0.54959 0.37312,-0.74625 0.0879,-0.0879 0.25513,0.0393 0.37312,0 0.24875,-0.12437 0.4975,-0.24874 0.74625,-0.37312 0,-0.12437 -0.088,-0.28518 0,-0.37312 0.45446,-0.45446 0.83363,-0.17478 1.11937,-0.74625 0.0556,-0.11124 -0.0556,-0.26188 0,-0.37312 0.15732,-0.31465 0.58892,-0.4316 0.74624,-0.74625 0.0556,-0.11124 -0.0556,-0.26187 0,-0.37312 0.0787,-0.15732 0.29446,-0.2158 0.37312,-0.37312 0.0556,-0.11125 -0.0879,-0.28518 0,-0.37312 0.77201,-0.77201 -0.0302,1.17972 0.74625,-0.37313 0.0556,-0.11124 -0.0879,-0.28517 0,-0.37312 0.088,-0.088 0.3175,0.11124 0.37312,0 0.11125,-0.22249 -0.0787,-0.51026 0,-0.74625 0.0556,-0.16686 0.29446,-0.2158 0.37313,-0.37312 0.0556,-0.11124 -0.0556,-0.26188 0,-0.37312 0.0787,-0.15732 0.29446,-0.2158 0.37312,-0.37313 0.0556,-0.11124 -0.0556,-0.26187 0,-0.37312 0.0787,-0.15732 0.29446,-0.2158 0.37312,-0.37312 0.11125,-0.22249 -0.11124,-0.52376 0,-0.74625 0.0787,-0.15732 0.29446,-0.2158 0.37313,-0.37312 0.45949,-0.91898 -1.08308,0.33683 0.37312,-1.11937 0.0879,-0.0879 0.28517,0.0879 0.37312,0 0.18656,-0.18656 -0.18656,-0.9328 0,-1.11937 0.19665,-0.19665 0.54959,-0.17647 0.74625,-0.37312 0.0879,-0.0879 -0.088,-0.28518 0,-0.37312 0.0879,-0.0879 0.28517,0.0879 0.37312,0 0.088,-0.0879 -0.0556,-0.26188 0,-0.37312 0.22387,-0.44775 0.8955,-0.67163 1.11937,-1.11937 0.14925,-0.2985 -0.14925,-0.820874 0,-1.119372 0.85382,-1.707636 -0.15465,1.583312 0.74624,-1.11937 0.0673,-0.201935 0,-1.365377 0,-1.49249 0,-1.119368 0,-2.238738 0,-3.358105 0,-0.994995 0,-1.98999 0,-2.984984 0,-0.124376 0.088,-0.285176 0,-0.373124 -0.0879,-0.08794 -0.26188,0.05562 -0.37312,0 -0.31464,-0.157321 -0.4316,-0.588923 -0.74624,-0.746244 -0.11125,-0.05562 -0.24875,0 -0.37313,0 -0.12437,0 -0.24875,0 -0.37312,0 -0.62187,0 -1.24374,0 -1.86561,0 -0.62188,0 -1.24375,0 -1.86562,0 -0.12437,0 -0.24875,0 -0.37312,0 -0.12437,0 -0.26188,-0.05562 -0.37313,0 -0.31464,0.157321 -0.43159,0.588923 -0.74624,0.746244 -0.11124,0.05562 -0.26188,-0.05562 -0.37312,0 -0.15733,0.07866 -0.2158,0.294463 -0.37313,0.373124 -0.11124,0.05562 -0.28517,-0.08794 -0.37312,0 -0.0879,0.08794 0.0556,0.261879 0,0.373123 -0.0787,0.157321 -0.29446,0.215799 -0.37312,0.373123 -0.0556,0.111244 0.0879,0.285176 0,0.373121 -0.088,0.08795 -0.26188,-0.05562 -0.37312,0 -1.55285,0.776425 0.39888,-0.02577 -0.37313,0.746247 -0.0879,0.08795 -0.28518,-0.08795 -0.37312,0 -0.17589,0.175892 0.11124,0.523758 0,0.746246 -0.0787,0.157322 -0.29446,0.2158 -0.37312,0.373124 -0.0482,0.09647 0,1.974265 0,2.238737 0,0.124373 0,0.248748 0,0.373121 0,0.124375 0.0879,0.285178 0,0.373123 -0.088,0.08795 -0.28518,-0.08795 -0.37313,0 -0.0879,0.08795 0.088,0.285179 0,0.373124 -0.0879,0.08794 -0.28517,-0.08795 -0.37312,0 -0.17589,0.175892 0.0924,0.515289 0,0.746246 -0.20657,0.516435 -0.4975,0.994995 -0.74624,1.492491 z"
       id="path80"
       inkscape:connector-curvature="0" />
    <path
       style="fill:#00ff00;stroke:#000000;stroke-width:0.26458332px;stroke-linecap:butt;stroke-linejoin:miter;stroke-opacity:1"
       d="m 119.77245,135.43779 c -1.61687,0 -3.23374,0 -4.8506,0 -0.16804,0 -1.00582,-0.0568 -1.11937,0 -0.44775,0.22387 -0.67162,0.89549 -1.11937,1.11937 -0.11124,0.0556 -0.3175,-0.11125 -0.37312,0 -0.11125,0.22248 0.13798,0.53927 0,0.74624 -0.15427,0.2314 -0.54959,0.17647 -0.74625,0.37313 -0.19665,0.19665 -0.21885,0.51484 -0.37312,0.74624 -0.0976,0.14635 -0.29446,0.2158 -0.37312,0.37312 -0.0556,0.11125 0.0556,0.26188 0,0.37313 -0.0787,0.15732 -0.29447,0.2158 -0.37313,0.37312 -0.0556,0.11124 0.0556,0.26188 0,0.37312 -0.0787,0.15732 -0.3175,0.20626 -0.37312,0.37312 -0.0787,0.23599 0.0787,0.51027 0,0.74625 -0.0556,0.16687 -0.29446,0.2158 -0.37312,0.37312 -0.0418,0.0836 0,1.40383 0,1.49249 0,0.12438 -0.088,0.28518 0,0.37313 0.0879,0.0879 0.3175,-0.11125 0.37312,0 0.11124,0.22249 -0.17589,0.57035 0,0.74624 0.17589,0.17589 0.51026,-0.0787 0.74625,0 0.33373,0.11125 0.41251,0.635 0.74624,0.74625 0.23599,0.0787 0.51026,-0.0787 0.74625,0 0.16686,0.0556 0.24875,0.24875 0.37312,0.37312 0.24875,0.12438 0.47644,0.30567 0.74625,0.37313 0.24132,0.0603 0.49749,0 0.74624,0 0.24875,0 0.4975,0 0.74625,0 0.74624,0 1.49249,0 2.23874,0 0.62187,0 1.24374,0 1.86561,0 0.24875,0 0.52376,0.11124 0.74625,0 0.11124,-0.0556 -0.088,-0.28518 0,-0.37313 0.0879,-0.0879 0.26187,0.0556 0.37312,0 0.15732,-0.0787 0.2158,-0.29446 0.37312,-0.37312 0.23452,-0.11726 1.25798,0.11726 1.49249,0 0.31465,-0.15732 0.4316,-0.58892 0.74625,-0.74625 0.22249,-0.11124 0.57035,0.17589 0.74625,0 0.0879,-0.0879 -0.088,-0.28517 0,-0.37312 0.17589,-0.17589 0.57035,0.17589 0.74624,0 0,-0.99499 -0.12437,0.12437 0.37312,-0.37312 0.17589,-0.17589 -0.11124,-0.52376 0,-0.74625 0.0787,-0.15732 0.29447,-0.2158 0.37313,-0.37312 0.0556,-0.11124 0,-0.24875 0,-0.37312 0,-0.74625 0,-1.4925 0,-2.23874 0,-0.12438 0.0879,-0.28518 0,-0.37312 -0.088,-0.0879 -0.28518,0.0879 -0.37313,0 -0.0879,-0.0879 0.0556,-0.26188 0,-0.37313 -0.0787,-0.15732 -0.29446,-0.2158 -0.37312,-0.37312 -0.0556,-0.11124 0.0879,-0.28518 0,-0.37312 -0.088,-0.088 -0.26188,0.0556 -0.37312,0 -0.15733,-0.0787 -0.2158,-0.29446 -0.37312,-0.37312 -0.11125,-0.0556 -0.28518,0.0879 -0.37313,0 -0.0879,-0.088 0.088,-0.28518 0,-0.37313 -0.17589,-0.17589 -0.57035,0.17589 -0.74624,0 -0.0879,-0.088 0.0879,-0.28518 0,-0.37312 -0.1759,-0.17589 -0.57036,0.17589 -0.74625,0 -0.0879,-0.088 0.088,-0.28518 0,-0.37312 -0.17589,-0.1759 -0.54725,0.14924 -0.74625,0 -0.42214,-0.31661 -0.74624,-0.74625 -1.11936,-1.11937 z"
       id="path82"
       inkscape:connector-curvature="0" />
    <path
       style="fill:#00ff00;stroke:#000000;stroke-width:0.26458332px;stroke-linecap:butt;stroke-linejoin:miter;stroke-opacity:1"
       d="m 132.0855,178.34692 c -0.4975,0.12437 -0.99499,0.24875 -1.49249,0.37312 0,0.12438 0.088,0.28518 0,0.37312 -0.1021,0.1021 -1.29008,-0.1012 -1.49249,0 -0.44775,0.22388 -0.67162,0.8955 -1.11937,1.11937 -0.51467,0.25734 -0.33375,-0.45187 -0.74625,0.37313 -0.0556,0.11124 0.088,0.28517 0,0.37312 -0.0879,0.088 -0.28517,-0.0879 -0.37312,0 -0.772,0.772 1.17973,-0.0302 -0.37312,0.74625 -0.11125,0.0556 -0.28518,-0.088 -0.37312,0 -0.1759,0.17589 0.11124,0.52375 0,0.74624 -0.0787,0.15732 -0.29447,0.2158 -0.37313,0.37312 -0.11007,0.22015 0.0855,0.86273 0,1.11937 -0.0879,0.26384 -0.28518,0.48241 -0.37312,0.74625 -0.0804,0.2413 0,1.4582 0,1.86561 0,0.31591 -0.0669,1.2919 0,1.49249 0.11124,0.33374 0.58892,0.43161 0.74625,0.74625 0.11124,0.22249 -0.1759,0.57035 0,0.74625 0.0879,0.0879 0.26187,-0.0556 0.37312,0 0.0991,0.0495 1.06983,1.0203 1.11937,1.11937 0.0556,0.11124 -0.088,0.28517 0,0.37312 0.0879,0.0879 0.26188,-0.0556 0.37312,0 0.31465,0.15732 0.4316,0.58892 0.74624,0.74624 0.11125,0.0556 0.26188,-0.0556 0.37313,0 0.15732,0.0787 0.2158,0.29447 0.37312,0.37313 0.11124,0.0556 0.26188,-0.0556 0.37312,0 0.15733,0.0787 0.2158,0.29446 0.37313,0.37312 0.11124,0.0556 0.24875,0 0.37312,0 0.12437,0 0.24875,0 0.37312,0 0.62187,0 1.24374,0 1.86562,0 0.19511,0 1.39438,0.049 1.49249,0 0.15732,-0.0787 0.24875,-0.24875 0.37312,-0.37312 0.12438,-0.12438 0.24875,-0.24875 0.37312,-0.37313 1.2375,-1.23749 -0.17589,0.35179 0.37313,-0.74624 0.0787,-0.15733 0.29446,-0.2158 0.37312,-0.37312 0.0556,-0.11125 -0.0556,-0.26188 0,-0.37313 0.0787,-0.15732 0.29446,-0.2158 0.37312,-0.37312 0.0568,-0.11356 0,-0.95133 0,-1.11937 0,-0.87062 0,-1.74124 0,-2.61186 0,-0.26447 0.0482,-2.14227 0,-2.23874 -0.0787,-0.15732 -0.24874,-0.24875 -0.37312,-0.37312 -0.12438,-0.12438 -0.2158,-0.29446 -0.37312,-0.37312 -0.995,0 0.12437,0.12437 -0.37313,-0.37313 -0.0879,-0.0879 -0.28517,0.088 -0.37312,0 -0.088,-0.0879 0.0556,-0.26188 0,-0.37312 -0.0787,-0.15732 -0.24875,-0.24875 -0.37312,-0.37312 -0.12438,-0.12438 -0.2158,-0.29446 -0.37312,-0.37312 -0.11125,-0.0556 -0.28518,0.0879 -0.37313,0 -0.0879,-0.088 0.0556,-0.26188 0,-0.37313 -0.0787,-0.15732 -0.29446,-0.2158 -0.37312,-0.37312 -0.11124,-0.22249 0.17589,-0.57036 0,-0.74625 -0.088,-0.0879 -0.28518,0.088 -0.37312,0 -0.088,-0.0879 0.0879,-0.28517 0,-0.37312 -0.088,-0.0879 -0.24875,0 -0.37312,0 -0.12438,-0.4975 -0.24876,-0.99499 -0.37313,-1.49249 z"
       id="path84"
       inkscape:connector-curvature="0" />
    <flowRoot
       xml:space="preserve"
       id="flowRoot96"
       style="font-style:normal;font-weight:normal;font-size:192.00000242px;line-height:1.25;font-family:sans-serif;letter-spacing:0px;word-spacing:0px;fill:#ffffff;fill-opacity:1;stroke:none;"
       transform="scale(0.26458333)"><flowRegion
         id="flowRegion98"
         style="font-size:192.00000242px;fill:#ffffff;"><rect
           id="rect100"
           width="303.19907"
           height="315.89114"
           x="242.55927"
           y="427.27713"
           style="font-size:192.00000242px;fill:#ffffff;" /></flowRegion><flowPara
         id="flowPara102" /></flowRoot>    <text
       xml:space="preserve"
       style="font-style:normal;font-weight:normal;font-size:25.4px;line-height:1.25;font-family:sans-serif;letter-spacing:0px;word-spacing:0px;fill:#ffffff;fill-opacity:1;stroke:none;stroke-width:0.26458332;"
       x="67.53524"
       y="126.48284"
       id="text106"><tspan
         sodipodi:role="line"
         id="tspan104"
         x="67.53524"
         y="148.95589"
         style="stroke-width:0.26458332;font-size:25.4px;fill:#ffffff;" /></text>
    <text
       xml:space="preserve"
       style="font-style:normal;font-weight:normal;font-size:25.39999962px;line-height:1.25;font-family:sans-serif;letter-spacing:0px;word-spacing:0px;fill:#000000;fill-opacity:1;stroke:none;stroke-width:0.26458332"
       x="74.25145"
       y="117.52789"
       id="text110"><tspan
         sodipodi:role="line"
         id="tspan108"
         x="74.25145"
         y="140.00095"
         style="stroke-width:0.26458332" /></text>
    <text
       xml:space="preserve"
       style="font-style:normal;font-weight:normal;font-size:50.8px;line-height:1.25;font-family:sans-serif;letter-spacing:0px;word-spacing:0px;fill:#000000;fill-opacity:1;stroke:none;stroke-width:0.26458332;"
       x="52.610325"
       y="132.07968"
       id="text114"><tspan
         sodipodi:role="line"
         x="52.610325"
         y="132.07968"
         style="stroke-width:0.26458332;font-size:50.8px;"
         id="tspan116"> </tspan></text>
    <text
       xml:space="preserve"
       style="font-style:normal;font-weight:normal;font-size:50.79999924px;line-height:1.25;font-family:sans-serif;letter-spacing:0px;word-spacing:0px;fill:#000000;fill-opacity:1;stroke:none;stroke-width:0.26458332"
       x="45.520988"
       y="163.422"
       id="text122"><tspan
         sodipodi:role="line"
         id="tspan120"
         x="45.520988"
         y="163.422"
         style="fill:#ffffff;stroke-width:0.26458332">DKS</tspan></text>
  </g>
</svg>
